<?xml version="1.0" standalone="no"?>
<!DOCTYPE svg PUBLIC "-//W3C//DTD SVG 1.1//EN" 
  "http://www.w3.org/Graphics/SVG/1.1/DTD/svg11.dtd">
<svg width="420px" height="420px" xmlns="http://www.w3.org/2000/svg" version="1.1">
  <rect width="420px" height="420px" x="0" y="0" id="background" style="opacity:1;fill:#ffffff;fill-opacity:1;stroke:#000000;stroke-width:1;stroke-linecap:square;stroke-linejoin:round;stroke-miterlimit:100;stroke-dasharray:none;stroke-opacity:1" />
  <path d="M410,210 409.842,276.098 409.368,297.148 408.575,312.358 407.463,324.629 406.025,335.033 404.259,344.1 402.157,352.136 399.711,359.334 396.911,365.826 393.744,371.703 390.195,377.033 386.244,381.867 381.867,386.244 377.033,390.195 371.703,393.744 365.826,396.911 359.334,399.711 352.136,402.157 344.1,404.259 335.033,406.025 324.629,407.463 312.358,408.575 297.148,409.368 276.098,409.842 210.151,410 143.902,409.842 122.852,409.368 107.642,408.575 95.371,407.463 84.967,406.025 75.9,404.259 67.864,402.157 60.666,399.711 54.174,396.911 48.297,393.744 42.967,390.195 38.133,386.244 33.756,381.867 29.805,377.033 26.256,371.703 23.089,365.826 20.289,359.334 17.843,352.136 15.741,344.1 13.975,335.033 12.537,324.629 11.425,312.358 10.632,297.148 10.158,276.098 10,210.199 10.158,143.902 10.632,122.852 11.425,107.642 12.537,95.371 13.975,84.967 15.741,75.9 17.843,67.864 20.289,60.666 23.089,54.174 26.256,48.297 29.805,42.967 33.756,38.133 38.133,33.756 42.967,29.805 48.297,26.256 54.174,23.089 60.666,20.289 67.864,17.843 75.9,15.741 84.967,13.975 95.371,12.537 107.642,11.425 122.852,10.632 143.902,10.158 209.765,10 276.098,10.158 297.148,10.632 312.358,11.425 324.629,12.537 335.032,13.975 344.1,15.741 352.136,17.843 359.334,20.289 365.826,23.089 371.703,26.256 377.033,29.805 381.867,33.756 386.244,38.133 390.195,42.967 393.744,48.297 396.911,54.174 399.711,60.666 402.157,67.864 404.259,75.9 406.025,84.967 407.463,95.371 408.575,107.642 409.368,122.852 409.842,143.902 410,209.737 z" style="fill:#9400E5;fill-opacity:1;stroke:#FFFFFF;stroke-opacity:0.5;stroke-width:1;stroke-miterlimit:4;stroke-dasharray:none" />
  <text x="15" y="405" id="copyright" xml:space="preserve" style="font-size:12px;font-style:normal;font-weight:normal;fill:#000000;fill-opacity:1;stroke:none;stroke-width:1px;stroke-linecap:butt;stroke-linejoin:miter;stroke-opacity:1;font-family:Arial">© 2023 Per Bang, www.perbang.dk/superellipse/</text>
</svg>
