<?xml version="1.0" encoding="UTF-8"?>
<!DOCTYPE svg PUBLIC "-//W3C//DTD SVG 1.1//EN" "http://www.w3.org/Graphics/SVG/1.1/DTD/svg11.dtd">
<svg version="1.2" width="100mm" height="100mm" viewBox="0 0 10000 10000" preserveAspectRatio="xMidYMid" fill-rule="evenodd" stroke-width="28.222" stroke-linejoin="round" xmlns="http://www.w3.org/2000/svg" xmlns:ooo="http://xml.openoffice.org/svg/export" xmlns:xlink="http://www.w3.org/1999/xlink" xmlns:presentation="http://sun.com/xmlns/staroffice/presentation" xmlns:smil="http://www.w3.org/2001/SMIL20/" xmlns:anim="urn:oasis:names:tc:opendocument:xmlns:animation:1.0" xmlns:svg="urn:oasis:names:tc:opendocument:xmlns:svg-compatible:1.0" xml:space="preserve">
 <defs class="ClipPathGroup">
  <clipPath id="presentation_clip_path" clipPathUnits="userSpaceOnUse">
   <rect x="0" y="0" width="10000" height="10000"/>
  </clipPath>
  <clipPath id="presentation_clip_path_shrink" clipPathUnits="userSpaceOnUse">
   <rect x="10" y="10" width="9980" height="9980"/>
  </clipPath>
 </defs>
 <defs class="TextShapeIndex">
  <g ooo:slide="id1" ooo:id-list="id3"/>
 </defs>
 <defs class="EmbeddedBulletChars">
  <g id="bullet-char-template-57356" transform="scale(0.00048828125,-0.00048828125)">
   <path d="M 580,1141 L 1163,571 580,0 -4,571 580,1141 Z"/>
  </g>
  <g id="bullet-char-template-57354" transform="scale(0.00048828125,-0.00048828125)">
   <path d="M 8,1128 L 1137,1128 1137,0 8,0 8,1128 Z"/>
  </g>
  <g id="bullet-char-template-10146" transform="scale(0.00048828125,-0.00048828125)">
   <path d="M 174,0 L 602,739 174,1481 1456,739 174,0 Z M 1358,739 L 309,1346 659,739 1358,739 Z"/>
  </g>
  <g id="bullet-char-template-10132" transform="scale(0.00048828125,-0.00048828125)">
   <path d="M 2015,739 L 1276,0 717,0 1260,543 174,543 174,936 1260,936 717,1481 1274,1481 2015,739 Z"/>
  </g>
  <g id="bullet-char-template-10007" transform="scale(0.00048828125,-0.00048828125)">
   <path d="M 0,-2 C -7,14 -16,27 -25,37 L 356,567 C 262,823 215,952 215,954 215,979 228,992 255,992 264,992 276,990 289,987 310,991 331,999 354,1012 L 381,999 492,748 772,1049 836,1024 860,1049 C 881,1039 901,1025 922,1006 886,937 835,863 770,784 769,783 710,716 594,584 L 774,223 C 774,196 753,168 711,139 L 727,119 C 717,90 699,76 672,76 641,76 570,178 457,381 L 164,-76 C 142,-110 111,-127 72,-127 30,-127 9,-110 8,-76 1,-67 -2,-52 -2,-32 -2,-23 -1,-13 0,-2 Z"/>
  </g>
  <g id="bullet-char-template-10004" transform="scale(0.00048828125,-0.00048828125)">
   <path d="M 285,-33 C 182,-33 111,30 74,156 52,228 41,333 41,471 41,549 55,616 82,672 116,743 169,778 240,778 293,778 328,747 346,684 L 369,508 C 377,444 397,411 428,410 L 1163,1116 C 1174,1127 1196,1133 1229,1133 1271,1133 1292,1118 1292,1087 L 1292,965 C 1292,929 1282,901 1262,881 L 442,47 C 390,-6 338,-33 285,-33 Z"/>
  </g>
  <g id="bullet-char-template-9679" transform="scale(0.00048828125,-0.00048828125)">
   <path d="M 813,0 C 632,0 489,54 383,161 276,268 223,411 223,592 223,773 276,916 383,1023 489,1130 632,1184 813,1184 992,1184 1136,1130 1245,1023 1353,916 1407,772 1407,592 1407,412 1353,268 1245,161 1136,54 992,0 813,0 Z"/>
  </g>
  <g id="bullet-char-template-8226" transform="scale(0.00048828125,-0.00048828125)">
   <path d="M 346,457 C 273,457 209,483 155,535 101,586 74,649 74,723 74,796 101,859 155,911 209,963 273,989 346,989 419,989 480,963 531,910 582,859 608,796 608,723 608,648 583,586 532,535 482,483 420,457 346,457 Z"/>
  </g>
  <g id="bullet-char-template-8211" transform="scale(0.00048828125,-0.00048828125)">
   <path d="M -4,459 L 1135,459 1135,606 -4,606 -4,459 Z"/>
  </g>
  <g id="bullet-char-template-61548" transform="scale(0.00048828125,-0.00048828125)">
   <path d="M 173,740 C 173,903 231,1043 346,1159 462,1274 601,1332 765,1332 928,1332 1067,1274 1183,1159 1299,1043 1357,903 1357,740 1357,577 1299,437 1183,322 1067,206 928,148 765,148 601,148 462,206 346,322 231,437 173,577 173,740 Z"/>
  </g>
 </defs>
 <g>
  <g id="id2" class="Master_Slide">
   <g id="bg-id2" class="Background"/>
   <g id="bo-id2" class="BackgroundObjects"/>
  </g>
 </g>
 <g class="SlideGroup">
  <g>
   <g id="container-id1">
    <g id="id1" class="Slide" clip-path="url(#presentation_clip_path)">
     <g class="Page">
      <g class="com.sun.star.drawing.ClosedBezierShape">
       <g id="id3">
        <rect class="BoundingBox" stroke="none" fill="none" x="0" y="0" width="10001" height="10001"/>
        <path fill="rgb(255,255,255)" stroke="none" d="M 1111,3816 C 1111,4037 1181,4212 1322,4341 1463,4470 1653,4534 1892,4534 2107,4534 2283,4486 2419,4390 2555,4295 2634,4163 2655,3995 L 2695,3995 2695,4489 3337,4489 3337,2784 C 3337,2661 3311,2550 3258,2452 3206,2353 3133,2268 3038,2198 2944,2128 2831,2073 2697,2034 2564,1995 2417,1976 2255,1976 2109,1976 1974,1993 1852,2027 1729,2062 1621,2111 1528,2176 1436,2240 1360,2318 1302,2409 1243,2500 1205,2603 1187,2716 L 1838,2716 C 1859,2648 1906,2593 1979,2553 2053,2512 2145,2492 2255,2492 2381,2492 2481,2519 2554,2573 2627,2627 2664,2697 2664,2784 L 2664,3004 2130,3004 C 1816,3004 1567,3076 1385,3221 1202,3366 1111,3565 1111,3816 Z M 1784,3708 C 1784,3612 1816,3538 1878,3486 1941,3434 2025,3407 2130,3407 L 2664,3407 2664,3659 C 2664,3763 2618,3850 2527,3917 2436,3984 2318,4018 2175,4018 2049,4018 1952,3990 1885,3935 1818,3879 1784,3804 1784,3708 Z M 3884,2021 L 3884,4489 4557,4489 4557,2963 C 4557,2838 4593,2739 4663,2667 4733,2595 4828,2559 4948,2559 5068,2559 5163,2595 5233,2667 5303,2739 5338,2838 5338,2963 L 5338,4489 6011,4489 6011,2896 C 6011,2609 5940,2384 5796,2220 5652,2057 5453,1976 5199,1976 5020,1976 4875,2016 4764,2097 4653,2178 4587,2295 4566,2447 L 4522,2447 4522,2021 3884,2021 Z M 6460,2021 L 6460,2627 7111,2627 7111,3636 C 7111,3903 7186,4111 7337,4262 7488,4413 7697,4489 7963,4489 L 8659,4489 8659,3883 8031,3883 C 7953,3883 7892,3861 7849,3818 7806,3775 7784,3714 7784,3636 L 7784,2627 8704,2627 8704,2021 7784,2021 7784,1258 7111,1258 7111,2021 6460,2021 Z M 1030,5680 L 1793,5680 1793,7452 C 1793,7719 1869,7927 2020,8078 2171,8230 2380,8305 2646,8305 L 3454,8305 3454,7699 2713,7699 C 2635,7699 2575,7678 2531,7634 2488,7591 2466,7530 2466,7452 L 2466,5074 1030,5074 1030,5680 Z M 3803,7632 C 3803,7853 3874,8028 4014,8157 4155,8286 4345,8350 4584,8350 4800,8350 4976,8302 5112,8206 5248,8111 5326,7979 5347,7811 L 5388,7811 5388,8305 6029,8305 6029,6600 C 6029,6477 6003,6366 5951,6268 5898,6169 5825,6084 5731,6014 5637,5944 5523,5889 5390,5850 5257,5811 5109,5792 4948,5792 4801,5792 4667,5809 4544,5844 4421,5878 4314,5927 4221,5992 4128,6056 4053,6134 3994,6225 3936,6316 3898,6419 3880,6532 L 4530,6532 C 4551,6464 4599,6409 4672,6369 4745,6328 4837,6308 4948,6308 5073,6308 5173,6335 5246,6389 5320,6443 5356,6513 5356,6600 L 5356,6820 4822,6820 C 4508,6820 4260,6892 4077,7037 3895,7182 3803,7381 3803,7632 Z M 4477,7524 C 4477,7428 4508,7354 4571,7302 4634,7250 4717,7224 4822,7224 L 5356,7224 5356,7475 C 5356,7580 5311,7666 5219,7733 5128,7800 5011,7834 4867,7834 4741,7834 4645,7806 4578,7751 4510,7695 4477,7620 4477,7524 Z M 6586,5074 L 6586,8305 7241,8305 7241,7874 7281,7874 C 7305,8024 7373,8141 7485,8224 7598,8308 7742,8350 7919,8350 8050,8350 8168,8327 8273,8280 8378,8234 8468,8168 8545,8083 8621,7998 8679,7894 8720,7773 8760,7652 8780,7515 8780,7363 L 8780,6757 C 8780,6610 8760,6477 8720,6357 8679,6238 8621,6136 8545,6052 8468,5968 8378,5904 8273,5859 8168,5814 8050,5792 7919,5792 7742,5792 7598,5834 7485,5918 7373,6001 7305,6117 7281,6263 L 7236,6263 C 7239,6212 7244,6161 7250,6111 7253,6069 7255,6023 7257,5974 7258,5924 7259,5879 7259,5837 L 7259,5074 6586,5074 Z M 7259,7363 L 7259,6779 C 7259,6657 7298,6559 7376,6485 7453,6412 7557,6375 7685,6375 7814,6375 7916,6411 7993,6483 8069,6555 8107,6654 8107,6779 L 8107,7340 C 8107,7466 8070,7568 7997,7645 7924,7723 7820,7762 7685,7762 7551,7762 7446,7725 7371,7650 7296,7575 7259,7479 7259,7363 Z M 10000,5001 L 9996,6652 9985,7179 9965,7559 9937,7866 9901,8126 9858,8353 9805,8554 9743,8733 9673,8896 9594,9042 9505,9176 9406,9297 9297,9406 9176,9505 9042,9594 8896,9673 8733,9743 8554,9805 8353,9858 8126,9901 7866,9937 7559,9965 7179,9985 6652,9996 5005,10000 3348,9996 2821,9985 2441,9965 2134,9937 1874,9901 1647,9858 1446,9805 1267,9743 1104,9673 958,9594 824,9505 703,9406 594,9297 495,9176 406,9042 327,8896 257,8733 195,8554 142,8353 99,8126 63,7866 35,7559 15,7179 4,6652 0,5005 4,3348 15,2821 35,2441 63,2134 99,1874 142,1647 195,1446 257,1267 327,1104 406,958 495,824 594,703 703,594 824,495 958,406 1104,327 1267,257 1446,195 1647,142 1874,99 2134,63 2441,35 2821,15 3348,4 4995,0 6652,4 7179,15 7559,35 7866,63 8126,99 8353,142 8554,195 8733,257 8896,327 9042,406 9176,495 9297,594 9406,703 9505,824 9594,958 9673,1104 9743,1267 9805,1446 9858,1647 9901,1874 9937,2134 9965,2441 9985,2821 9996,3348 10000,4994 10000,5001 Z"/>
       </g>
      </g>
     </g>
    </g>
   </g>
  </g>
 </g>
</svg>