<?xml version="1.0" encoding="UTF-8"?>
<!DOCTYPE svg PUBLIC "-//W3C//DTD SVG 1.1//EN" "http://www.w3.org/Graphics/SVG/1.1/DTD/svg11.dtd">
<svg version="1.2" width="111.13mm" height="111.13mm" viewBox="0 0 11113 11113" preserveAspectRatio="xMidYMid" fill-rule="evenodd" stroke-width="28.222" stroke-linejoin="round" xmlns="http://www.w3.org/2000/svg" xmlns:ooo="http://xml.openoffice.org/svg/export" xmlns:xlink="http://www.w3.org/1999/xlink" xmlns:presentation="http://sun.com/xmlns/staroffice/presentation" xmlns:smil="http://www.w3.org/2001/SMIL20/" xmlns:anim="urn:oasis:names:tc:opendocument:xmlns:animation:1.0" xmlns:svg="urn:oasis:names:tc:opendocument:xmlns:svg-compatible:1.0" xml:space="preserve">
 <defs class="ClipPathGroup">
  <clipPath id="presentation_clip_path" clipPathUnits="userSpaceOnUse">
   <rect x="0" y="0" width="11113" height="11113"/>
  </clipPath>
  <clipPath id="presentation_clip_path_shrink" clipPathUnits="userSpaceOnUse">
   <rect x="11" y="11" width="11091" height="11091"/>
  </clipPath>
 </defs>
 <defs class="TextShapeIndex">
  <g ooo:slide="id1" ooo:id-list="id3 id4 id5 id6 id7 id8 id9 id10"/>
 </defs>
 <defs class="EmbeddedBulletChars">
  <g id="bullet-char-template-57356" transform="scale(0.00048828125,-0.00048828125)">
   <path d="M 580,1141 L 1163,571 580,0 -4,571 580,1141 Z"/>
  </g>
  <g id="bullet-char-template-57354" transform="scale(0.00048828125,-0.00048828125)">
   <path d="M 8,1128 L 1137,1128 1137,0 8,0 8,1128 Z"/>
  </g>
  <g id="bullet-char-template-10146" transform="scale(0.00048828125,-0.00048828125)">
   <path d="M 174,0 L 602,739 174,1481 1456,739 174,0 Z M 1358,739 L 309,1346 659,739 1358,739 Z"/>
  </g>
  <g id="bullet-char-template-10132" transform="scale(0.00048828125,-0.00048828125)">
   <path d="M 2015,739 L 1276,0 717,0 1260,543 174,543 174,936 1260,936 717,1481 1274,1481 2015,739 Z"/>
  </g>
  <g id="bullet-char-template-10007" transform="scale(0.00048828125,-0.00048828125)">
   <path d="M 0,-2 C -7,14 -16,27 -25,37 L 356,567 C 262,823 215,952 215,954 215,979 228,992 255,992 264,992 276,990 289,987 310,991 331,999 354,1012 L 381,999 492,748 772,1049 836,1024 860,1049 C 881,1039 901,1025 922,1006 886,937 835,863 770,784 769,783 710,716 594,584 L 774,223 C 774,196 753,168 711,139 L 727,119 C 717,90 699,76 672,76 641,76 570,178 457,381 L 164,-76 C 142,-110 111,-127 72,-127 30,-127 9,-110 8,-76 1,-67 -2,-52 -2,-32 -2,-23 -1,-13 0,-2 Z"/>
  </g>
  <g id="bullet-char-template-10004" transform="scale(0.00048828125,-0.00048828125)">
   <path d="M 285,-33 C 182,-33 111,30 74,156 52,228 41,333 41,471 41,549 55,616 82,672 116,743 169,778 240,778 293,778 328,747 346,684 L 369,508 C 377,444 397,411 428,410 L 1163,1116 C 1174,1127 1196,1133 1229,1133 1271,1133 1292,1118 1292,1087 L 1292,965 C 1292,929 1282,901 1262,881 L 442,47 C 390,-6 338,-33 285,-33 Z"/>
  </g>
  <g id="bullet-char-template-9679" transform="scale(0.00048828125,-0.00048828125)">
   <path d="M 813,0 C 632,0 489,54 383,161 276,268 223,411 223,592 223,773 276,916 383,1023 489,1130 632,1184 813,1184 992,1184 1136,1130 1245,1023 1353,916 1407,772 1407,592 1407,412 1353,268 1245,161 1136,54 992,0 813,0 Z"/>
  </g>
  <g id="bullet-char-template-8226" transform="scale(0.00048828125,-0.00048828125)">
   <path d="M 346,457 C 273,457 209,483 155,535 101,586 74,649 74,723 74,796 101,859 155,911 209,963 273,989 346,989 419,989 480,963 531,910 582,859 608,796 608,723 608,648 583,586 532,535 482,483 420,457 346,457 Z"/>
  </g>
  <g id="bullet-char-template-8211" transform="scale(0.00048828125,-0.00048828125)">
   <path d="M -4,459 L 1135,459 1135,606 -4,606 -4,459 Z"/>
  </g>
  <g id="bullet-char-template-61548" transform="scale(0.00048828125,-0.00048828125)">
   <path d="M 173,740 C 173,903 231,1043 346,1159 462,1274 601,1332 765,1332 928,1332 1067,1274 1183,1159 1299,1043 1357,903 1357,740 1357,577 1299,437 1183,322 1067,206 928,148 765,148 601,148 462,206 346,322 231,437 173,577 173,740 Z"/>
  </g>
 </defs>
 <g>
  <g id="id2" class="Master_Slide">
   <g id="bg-id2" class="Background"/>
   <g id="bo-id2" class="BackgroundObjects"/>
  </g>
 </g>
 <g class="SlideGroup">
  <g>
   <g id="container-id1">
    <g id="id1" class="Slide" clip-path="url(#presentation_clip_path)">
     <g class="Page">
      <g class="com.sun.star.drawing.CustomShape">
       <g id="id3">
        <rect class="BoundingBox" stroke="none" fill="none" x="-2" y="-2" width="11116" height="11116"/>
        <path fill="rgb(0,114,188)" stroke="none" d="M 5556,11112 L -1,11112 -1,-1 11112,-1 11112,11112 5556,11112 Z"/>
        <path fill="none" stroke="rgb(52,101,164)" d="M 5556,11112 L -1,11112 -1,-1 11112,-1 11112,11112 5556,11112 Z"/>
       </g>
      </g>
      <g class="Group">
       <g class="com.sun.star.drawing.PolyPolygonShape">
        <g id="id4">
         <rect class="BoundingBox" stroke="none" fill="none" x="1" y="1" width="11111" height="11111"/>
         <path fill="rgb(0,114,188)" stroke="none" d="M 11111,5557 L 11107,7391 11094,7977 11072,8399 11041,8740 11001,9029 10953,9281 10894,9504 10825,9703 10748,9884 10660,10047 10561,10196 10451,10330 10330,10451 10196,10561 10047,10660 9884,10748 9703,10825 9504,10894 9281,10953 9029,11001 8740,11041 8399,11072 7977,11094 7391,11107 5562,11111 3721,11107 3135,11094 2713,11072 2372,11041 2083,11001 1831,10953 1608,10894 1409,10825 1228,10748 1065,10660 916,10561 782,10451 661,10330 551,10196 452,10047 364,9884 287,9703 218,9504 159,9281 111,9029 71,8740 40,8399 18,7977 5,7391 1,5562 5,3721 18,3135 40,2713 71,2372 111,2083 159,1831 218,1608 287,1409 364,1228 452,1065 551,916 661,782 782,661 916,551 1065,452 1228,364 1409,287 1608,218 1831,159 2083,111 2372,71 2713,40 3135,18 3721,5 5550,1 7391,5 7977,18 8399,40 8740,71 9029,111 9281,159 9504,218 9703,287 9884,364 10047,452 10196,551 10330,661 10451,782 10561,916 10660,1065 10748,1228 10825,1409 10894,1608 10953,1831 11001,2083 11041,2372 11072,2713 11094,3135 11107,3721 11111,5549 11111,5557 Z"/>
        </g>
       </g>
       <g class="Group">
        <g class="com.sun.star.drawing.ClosedBezierShape">
         <g id="id5">
          <rect class="BoundingBox" stroke="none" fill="none" x="1340" y="2414" width="2475" height="2844"/>
          <path fill="rgb(255,255,255)" stroke="none" d="M 1341,4458 C 1341,4179 1442,3958 1645,3797 1847,3636 2124,3556 2473,3556 L 3066,3556 3066,3312 C 3066,3215 3025,3137 2944,3077 2862,3017 2752,2987 2612,2987 2490,2987 2387,3010 2305,3055 2224,3100 2172,3161 2149,3236 L 1425,3236 C 1445,3111 1488,2996 1553,2895 1618,2794 1702,2707 1804,2636 1907,2564 2027,2510 2163,2472 2300,2433 2450,2414 2612,2414 2792,2414 2955,2435 3103,2479 3252,2522 3377,2583 3482,2661 3587,2739 3668,2833 3726,2943 3785,3052 3814,3175 3814,3312 L 3814,5206 3101,5206 3101,4657 3056,4657 C 3033,4844 2945,4991 2794,5096 2643,5203 2447,5256 2209,5256 1943,5256 1732,5185 1575,5042 1419,4898 1341,4704 1341,4458 Z M 2089,4338 C 2089,4445 2126,4529 2201,4591 2275,4652 2383,4683 2523,4683 2682,4683 2813,4645 2914,4571 3015,4496 3066,4401 3066,4284 L 3066,4005 2473,4005 C 2356,4005 2263,4034 2193,4092 2124,4149 2089,4233 2089,4338 Z"/>
         </g>
        </g>
        <g class="com.sun.star.drawing.ClosedBezierShape">
         <g id="id6">
          <rect class="BoundingBox" stroke="none" fill="none" x="4421" y="2414" width="2365" height="2794"/>
          <path fill="rgb(255,255,255)" stroke="none" d="M 4422,2464 L 5129,2464 5129,2937 5179,2937 C 5203,2769 5276,2639 5399,2549 5522,2459 5683,2414 5883,2414 6165,2414 6386,2505 6546,2686 6705,2867 6785,3117 6785,3436 L 6785,5206 6037,5206 6037,3511 C 6037,3372 5998,3262 5920,3182 5842,3102 5736,3062 5604,3062 5470,3062 5365,3102 5287,3182 5208,3262 5169,3372 5169,3511 L 5169,5206 4422,5206 4422,2464 Z"/>
         </g>
        </g>
        <g class="com.sun.star.drawing.ClosedBezierShape">
         <g id="id7">
          <rect class="BoundingBox" stroke="none" fill="none" x="7283" y="1616" width="2495" height="3592"/>
          <path fill="rgb(255,255,255)" stroke="none" d="M 7284,2464 L 8007,2464 8007,1616 8755,1616 8755,2464 9777,2464 9777,3137 8755,3137 8755,4258 C 8755,4345 8779,4413 8827,4461 8875,4509 8942,4533 9029,4533 L 9727,4533 9727,5206 8953,5206 C 8658,5206 8426,5123 8258,4955 8090,4786 8007,4555 8007,4258 L 8007,3137 7284,3137 7284,2464 Z"/>
         </g>
        </g>
        <g class="com.sun.star.drawing.ClosedBezierShape">
         <g id="id8">
          <rect class="BoundingBox" stroke="none" fill="none" x="1250" y="5855" width="2694" height="3592"/>
          <path fill="rgb(255,255,255)" stroke="none" d="M 1251,6529 L 1251,5856 2846,5856 2846,8498 C 2846,8585 2871,8652 2918,8700 2967,8749 3034,8772 3121,8772 L 3943,8772 3943,9446 3046,9446 C 2750,9446 2519,9362 2351,9195 2182,9026 2099,8795 2099,8498 L 2099,6529 1251,6529 Z"/>
         </g>
        </g>
        <g class="com.sun.star.drawing.ClosedBezierShape">
         <g id="id9">
          <rect class="BoundingBox" stroke="none" fill="none" x="4331" y="6653" width="2475" height="2844"/>
          <path fill="rgb(255,255,255)" stroke="none" d="M 4332,8698 C 4332,8419 4433,8198 4636,8037 4838,7876 5115,7796 5464,7796 L 6057,7796 6057,7551 C 6057,7455 6016,7377 5935,7317 5853,7257 5743,7227 5603,7227 5480,7227 5378,7249 5296,7295 5215,7339 5163,7400 5139,7476 L 4416,7476 C 4436,7350 4478,7236 4544,7135 4608,7034 4693,6947 4795,6876 4898,6804 5018,6749 5154,6711 5290,6673 5440,6654 5603,6654 5783,6654 5946,6675 6094,6718 6243,6761 6368,6823 6473,6900 6578,6978 6659,7073 6717,7183 6776,7291 6805,7415 6805,7551 L 6805,9446 6092,9446 6092,8897 6047,8897 C 6024,9083 5936,9230 5785,9336 5634,9442 5438,9496 5199,9496 4934,9496 4723,9425 4566,9281 4409,9138 4332,8943 4332,8698 Z M 5079,8578 C 5079,8685 5117,8769 5192,8830 5266,8891 5374,8922 5514,8922 5673,8922 5804,8885 5905,8810 6006,8736 6057,8640 6057,8523 L 6057,8245 5464,8245 C 5347,8245 5254,8274 5184,8331 5115,8389 5079,8472 5079,8578 Z"/>
         </g>
        </g>
        <g class="com.sun.star.drawing.ClosedBezierShape">
         <g id="id10">
          <rect class="BoundingBox" stroke="none" fill="none" x="7423" y="5855" width="2440" height="3642"/>
          <path fill="rgb(255,255,255)" stroke="none" d="M 7424,5856 L 8171,5856 8171,6704 C 8171,6750 8170,6800 8169,6856 8167,6910 8165,6961 8161,7008 8155,7065 8150,7120 8147,7177 L 8197,7177 C 8224,7015 8299,6886 8423,6794 8548,6700 8708,6654 8905,6654 9050,6654 9182,6678 9298,6728 9415,6778 9516,6850 9600,6943 9684,7036 9750,7149 9794,7281 9839,7415 9861,7562 9861,7726 L 9861,8399 C 9861,8568 9839,8720 9794,8855 9750,8990 9684,9105 9600,9199 9516,9293 9415,9367 9298,9418 9182,9470 9050,9496 8905,9496 8708,9496 8548,9449 8423,9356 8299,9263 8224,9133 8197,8967 L 8151,8967 8151,9446 7424,9446 7424,5856 Z M 8171,8399 C 8171,8528 8214,8635 8296,8718 8379,8801 8496,8842 8645,8842 8795,8842 8910,8799 8991,8712 9073,8627 9113,8513 9113,8373 L 9113,7750 C 9113,7611 9071,7501 8987,7421 8902,7341 8788,7301 8645,7301 8502,7301 8388,7342 8301,7424 8215,7506 8171,7615 8171,7750 L 8171,8399 Z"/>
         </g>
        </g>
       </g>
      </g>
     </g>
    </g>
   </g>
  </g>
 </g>
</svg>