<?xml version="1.0" encoding="UTF-8"?>
<!DOCTYPE svg PUBLIC "-//W3C//DTD SVG 1.1//EN" "http://www.w3.org/Graphics/SVG/1.1/DTD/svg11.dtd">
<svg version="1.2" width="100mm" height="100mm" viewBox="0 0 10000 10000" preserveAspectRatio="xMidYMid" fill-rule="evenodd" stroke-width="28.222" stroke-linejoin="round" xmlns="http://www.w3.org/2000/svg" xmlns:ooo="http://xml.openoffice.org/svg/export" xmlns:xlink="http://www.w3.org/1999/xlink" xmlns:presentation="http://sun.com/xmlns/staroffice/presentation" xmlns:smil="http://www.w3.org/2001/SMIL20/" xmlns:anim="urn:oasis:names:tc:opendocument:xmlns:animation:1.0" xmlns:svg="urn:oasis:names:tc:opendocument:xmlns:svg-compatible:1.0" xml:space="preserve">
 <defs class="ClipPathGroup">
  <clipPath id="presentation_clip_path" clipPathUnits="userSpaceOnUse">
   <rect x="0" y="0" width="10000" height="10000"/>
  </clipPath>
  <clipPath id="presentation_clip_path_shrink" clipPathUnits="userSpaceOnUse">
   <rect x="10" y="10" width="9980" height="9980"/>
  </clipPath>
 </defs>
 <defs class="TextShapeIndex">
  <g ooo:slide="id1" ooo:id-list="id3 id4 id5 id6 id7 id8 id9 id10 id11 id12 id13 id14 id15 id16 id17 id18 id19 id20 id21 id22 id23 id24 id25 id26 id27 id28 id29 id30 id31 id32 id33 id34 id35 id36 id37 id38 id39 id40 id41 id42 id43 id44 id45"/>
 </defs>
 <defs class="EmbeddedBulletChars">
  <g id="bullet-char-template-57356" transform="scale(0.00048828125,-0.00048828125)">
   <path d="M 580,1141 L 1163,571 580,0 -4,571 580,1141 Z"/>
  </g>
  <g id="bullet-char-template-57354" transform="scale(0.00048828125,-0.00048828125)">
   <path d="M 8,1128 L 1137,1128 1137,0 8,0 8,1128 Z"/>
  </g>
  <g id="bullet-char-template-10146" transform="scale(0.00048828125,-0.00048828125)">
   <path d="M 174,0 L 602,739 174,1481 1456,739 174,0 Z M 1358,739 L 309,1346 659,739 1358,739 Z"/>
  </g>
  <g id="bullet-char-template-10132" transform="scale(0.00048828125,-0.00048828125)">
   <path d="M 2015,739 L 1276,0 717,0 1260,543 174,543 174,936 1260,936 717,1481 1274,1481 2015,739 Z"/>
  </g>
  <g id="bullet-char-template-10007" transform="scale(0.00048828125,-0.00048828125)">
   <path d="M 0,-2 C -7,14 -16,27 -25,37 L 356,567 C 262,823 215,952 215,954 215,979 228,992 255,992 264,992 276,990 289,987 310,991 331,999 354,1012 L 381,999 492,748 772,1049 836,1024 860,1049 C 881,1039 901,1025 922,1006 886,937 835,863 770,784 769,783 710,716 594,584 L 774,223 C 774,196 753,168 711,139 L 727,119 C 717,90 699,76 672,76 641,76 570,178 457,381 L 164,-76 C 142,-110 111,-127 72,-127 30,-127 9,-110 8,-76 1,-67 -2,-52 -2,-32 -2,-23 -1,-13 0,-2 Z"/>
  </g>
  <g id="bullet-char-template-10004" transform="scale(0.00048828125,-0.00048828125)">
   <path d="M 285,-33 C 182,-33 111,30 74,156 52,228 41,333 41,471 41,549 55,616 82,672 116,743 169,778 240,778 293,778 328,747 346,684 L 369,508 C 377,444 397,411 428,410 L 1163,1116 C 1174,1127 1196,1133 1229,1133 1271,1133 1292,1118 1292,1087 L 1292,965 C 1292,929 1282,901 1262,881 L 442,47 C 390,-6 338,-33 285,-33 Z"/>
  </g>
  <g id="bullet-char-template-9679" transform="scale(0.00048828125,-0.00048828125)">
   <path d="M 813,0 C 632,0 489,54 383,161 276,268 223,411 223,592 223,773 276,916 383,1023 489,1130 632,1184 813,1184 992,1184 1136,1130 1245,1023 1353,916 1407,772 1407,592 1407,412 1353,268 1245,161 1136,54 992,0 813,0 Z"/>
  </g>
  <g id="bullet-char-template-8226" transform="scale(0.00048828125,-0.00048828125)">
   <path d="M 346,457 C 273,457 209,483 155,535 101,586 74,649 74,723 74,796 101,859 155,911 209,963 273,989 346,989 419,989 480,963 531,910 582,859 608,796 608,723 608,648 583,586 532,535 482,483 420,457 346,457 Z"/>
  </g>
  <g id="bullet-char-template-8211" transform="scale(0.00048828125,-0.00048828125)">
   <path d="M -4,459 L 1135,459 1135,606 -4,606 -4,459 Z"/>
  </g>
  <g id="bullet-char-template-61548" transform="scale(0.00048828125,-0.00048828125)">
   <path d="M 173,740 C 173,903 231,1043 346,1159 462,1274 601,1332 765,1332 928,1332 1067,1274 1183,1159 1299,1043 1357,903 1357,740 1357,577 1299,437 1183,322 1067,206 928,148 765,148 601,148 462,206 346,322 231,437 173,577 173,740 Z"/>
  </g>
 </defs>
 <g>
  <g id="id2" class="Master_Slide">
   <g id="bg-id2" class="Background"/>
   <g id="bo-id2" class="BackgroundObjects"/>
  </g>
 </g>
 <g class="SlideGroup">
  <g>
   <g id="container-id1">
    <g id="id1" class="Slide" clip-path="url(#presentation_clip_path)">
     <g class="Page">
      <g class="Group">
       <g class="com.sun.star.drawing.PolyPolygonShape">
        <g id="id3">
         <rect class="BoundingBox" stroke="none" fill="none" x="9103" y="5897" width="898" height="417"/>
         <path fill="rgb(0,114,188)" stroke="none" d="M 9104,6312 L 10000,6133 9186,5898 9104,6312 Z"/>
        </g>
       </g>
       <g class="com.sun.star.drawing.ClosedBezierShape">
        <g id="id4">
         <rect class="BoundingBox" stroke="none" fill="none" x="0" y="3275" width="8913" height="3452"/>
         <path fill="rgb(0,114,188)" stroke="none" d="M 8912,5992 L 2431,5992 C 2276,5992 2209,6158 2143,6318 2121,6374 2085,6462 2057,6498 2007,6450 1972,6222 1957,6133 L 1949,6083 C 1899,5775 1854,5451 1811,5136 1620,3761 1529,3281 1265,3275 932,3269 814,3837 464,5522 L 417,5742 C 366,5992 247,5992 197,5992 L 38,5992 0,6208 197,6208 C 328,6208 561,6153 638,5783 L 684,5564 C 900,4526 1104,3546 1249,3497 1374,3626 1497,4511 1588,5164 1632,5480 1676,5806 1727,6116 L 1734,6165 C 1774,6414 1823,6725 2065,6725 2220,6725 2288,6557 2353,6397 2378,6336 2419,6236 2446,6208 L 8872,6208 8912,5992 Z"/>
        </g>
       </g>
       <g class="com.sun.star.drawing.PolyPolygonShape">
        <g id="id5">
         <rect class="BoundingBox" stroke="none" fill="none" x="2637" y="4298" width="2427" height="1466"/>
         <path fill="rgb(0,114,188)" stroke="none" d="M 2946,4299 L 3806,4299 3834,5099 3846,5099 4203,4299 5063,4299 4754,5762 4233,5762 4476,4611 4463,4611 3921,5762 3438,5762 3390,4611 3375,4611 3131,5762 2638,5762 2946,4299 Z"/>
        </g>
       </g>
       <g class="com.sun.star.drawing.PolyPolygonShape">
        <g id="id6">
         <rect class="BoundingBox" stroke="none" fill="none" x="4969" y="4298" width="893" height="1466"/>
         <path fill="rgb(0,114,188)" stroke="none" d="M 5860,4299 L 5553,5762 4970,5762 5278,4299 5860,4299 Z"/>
        </g>
       </g>
       <g class="com.sun.star.drawing.ClosedBezierShape">
        <g id="id7">
         <rect class="BoundingBox" stroke="none" fill="none" x="5767" y="4298" width="1759" height="1466"/>
         <path fill="rgb(0,114,188)" stroke="none" d="M 6494,5000 L 6636,5000 C 6857,5000 6931,4885 6931,4787 6931,4741 6907,4643 6731,4643 L 6568,4643 6494,5000 Z M 7008,4299 C 7325,4299 7524,4484 7524,4733 7524,5006 7301,5346 6770,5346 L 6436,5346 6349,5762 5767,5762 6076,4299 7008,4299 Z"/>
        </g>
       </g>
       <g class="com.sun.star.drawing.PolyPolygonShape">
        <g id="id8">
         <rect class="BoundingBox" stroke="none" fill="none" x="7521" y="4298" width="1699" height="1466"/>
         <path fill="rgb(0,114,188)" stroke="none" d="M 9218,4299 L 9126,4731 8615,4731 8398,5762 7817,5762 8034,4731 7522,4731 7612,4299 9218,4299 Z"/>
        </g>
       </g>
       <g class="com.sun.star.drawing.PolyPolygonShape">
        <g id="id9">
         <rect class="BoundingBox" stroke="none" fill="none" x="2528" y="6388" width="219" height="189"/>
         <path fill="rgb(0,114,188)" stroke="none" d="M 2612,6389 L 2631,6506 2631,6507 2687,6389 2745,6389 2717,6575 2676,6575 2700,6429 2699,6429 2632,6575 2606,6575 2584,6430 2583,6429 2562,6575 2528,6575 2558,6389 2612,6389 Z"/>
        </g>
       </g>
       <g class="com.sun.star.drawing.ClosedBezierShape">
        <g id="id10">
         <rect class="BoundingBox" stroke="none" fill="none" x="2757" y="6386" width="163" height="193"/>
         <path fill="rgb(0,114,188)" stroke="none" d="M 2805,6530 C 2811,6541 2819,6544 2830,6544 2839,6544 2848,6541 2856,6531 2869,6515 2875,6480 2875,6460 2875,6452 2874,6440 2869,6433 2866,6425 2857,6418 2844,6418 2832,6418 2824,6423 2818,6431 2805,6448 2799,6481 2799,6503 2799,6511 2800,6521 2805,6530 Z M 2893,6400 C 2905,6410 2918,6431 2918,6465 2918,6492 2909,6525 2895,6543 2887,6555 2867,6578 2826,6578 2807,6578 2791,6573 2776,6557 2762,6541 2757,6522 2757,6499 2757,6473 2762,6437 2787,6411 2805,6392 2824,6386 2847,6386 2860,6386 2878,6387 2893,6400 Z"/>
        </g>
       </g>
       <g class="com.sun.star.drawing.ClosedBezierShape">
        <g id="id11">
         <rect class="BoundingBox" stroke="none" fill="none" x="2919" y="6387" width="162" height="193"/>
         <path fill="rgb(0,114,188)" stroke="none" d="M 3043,6442 C 3041,6438 3039,6433 3035,6429 3027,6421 3016,6419 3009,6419 3003,6419 2994,6421 2988,6425 2985,6429 2984,6434 2984,6438 2984,6442 2984,6444 2986,6448 2988,6453 2996,6456 3009,6461 3019,6465 3029,6466 3042,6472 3047,6474 3059,6480 3066,6494 3069,6501 3071,6511 3071,6518 3071,6531 3066,6549 3049,6563 3034,6576 3016,6579 2994,6579 2980,6579 2961,6578 2946,6566 2937,6560 2925,6548 2919,6528 L 2959,6518 C 2960,6523 2962,6529 2967,6534 2975,6543 2985,6547 2997,6547 3003,6547 3012,6545 3019,6540 3025,6535 3028,6529 3028,6524 3028,6519 3027,6516 3024,6512 3022,6510 3016,6506 3005,6503 2987,6496 2960,6490 2948,6469 2943,6462 2941,6452 2941,6444 2941,6428 2948,6412 2960,6403 2974,6390 2994,6387 3010,6387 3027,6387 3044,6389 3062,6406 3069,6414 3074,6422 3079,6431 L 3043,6442 Z"/>
        </g>
       </g>
       <g class="com.sun.star.drawing.ClosedBezierShape">
        <g id="id12">
         <rect class="BoundingBox" stroke="none" fill="none" x="3096" y="6387" width="156" height="193"/>
         <path fill="rgb(0,114,188)" stroke="none" d="M 3214,6460 C 3214,6453 3213,6442 3208,6434 3203,6424 3196,6419 3184,6419 3168,6419 3159,6431 3153,6444 3145,6462 3141,6488 3141,6507 3141,6516 3142,6529 3149,6537 3153,6542 3161,6547 3168,6547 3183,6547 3199,6538 3205,6510 L 3242,6517 C 3240,6526 3235,6536 3229,6545 3213,6570 3192,6579 3167,6579 3140,6579 3122,6565 3112,6553 3103,6538 3097,6521 3097,6500 3097,6472 3105,6441 3121,6421 3137,6400 3158,6387 3188,6387 3211,6387 3226,6398 3233,6405 3245,6418 3251,6438 3251,6455 L 3214,6460 Z"/>
        </g>
       </g>
       <g class="com.sun.star.drawing.ClosedBezierShape">
        <g id="id13">
         <rect class="BoundingBox" stroke="none" fill="none" x="3263" y="6387" width="164" height="193"/>
         <path fill="rgb(0,114,188)" stroke="none" d="M 3313,6531 C 3319,6542 3326,6547 3338,6547 3348,6547 3357,6543 3365,6532 3377,6516 3383,6482 3383,6461 3383,6454 3382,6442 3377,6434 3373,6428 3365,6419 3352,6419 3340,6419 3332,6425 3325,6434 3313,6450 3307,6482 3307,6505 3307,6513 3308,6523 3313,6531 Z M 3401,6403 C 3412,6412 3426,6433 3426,6466 3426,6494 3416,6526 3403,6544 3395,6556 3373,6579 3333,6579 3315,6579 3298,6574 3284,6559 3270,6543 3264,6524 3264,6500 3264,6474 3269,6438 3295,6412 3313,6393 3331,6387 3354,6387 3368,6387 3385,6389 3401,6403 Z"/>
        </g>
       </g>
       <g class="com.sun.star.drawing.PolyPolygonShape">
        <g id="id14">
         <rect class="BoundingBox" stroke="none" fill="none" x="3448" y="6389" width="229" height="189"/>
         <path fill="rgb(0,114,188)" stroke="none" d="M 3601,6576 L 3564,6576 3552,6456 3503,6576 3468,6576 3449,6390 3488,6390 3497,6515 3499,6515 3548,6390 3581,6390 3593,6515 3594,6515 3640,6390 3675,6390 3601,6576 Z"/>
        </g>
       </g>
       <g class="com.sun.star.drawing.PolyPolygonShape">
        <g id="id15">
         <rect class="BoundingBox" stroke="none" fill="none" x="3764" y="6388" width="73" height="189"/>
         <path fill="rgb(0,114,188)" stroke="none" d="M 3794,6389 L 3764,6575 3806,6575 3836,6389 3794,6389 Z"/>
        </g>
       </g>
       <g class="com.sun.star.drawing.ClosedBezierShape">
        <g id="id16">
         <rect class="BoundingBox" stroke="none" fill="none" x="3856" y="6388" width="175" height="189"/>
         <path fill="rgb(0,114,188)" stroke="none" d="M 3979,6511 C 3979,6507 3978,6498 3980,6487 L 3996,6389 4029,6389 4000,6575 3965,6575 3915,6452 3910,6437 C 3910,6449 3909,6456 3907,6463 L 3891,6575 3856,6575 3886,6389 3928,6389 3979,6511 Z"/>
        </g>
       </g>
       <g class="com.sun.star.drawing.ClosedBezierShape">
        <g id="id17">
         <rect class="BoundingBox" stroke="none" fill="none" x="4039" y="6386" width="161" height="193"/>
         <path fill="rgb(0,114,188)" stroke="none" d="M 4163,6441 C 4161,6436 4158,6431 4154,6428 4147,6419 4135,6418 4128,6418 4122,6418 4115,6418 4109,6424 4104,6428 4103,6433 4103,6437 4103,6440 4104,6443 4105,6446 4109,6450 4115,6455 4128,6459 4139,6462 4149,6465 4161,6469 4166,6473 4180,6479 4186,6492 4190,6500 4192,6510 4192,6517 4192,6530 4186,6548 4169,6561 4153,6574 4136,6578 4115,6578 4099,6578 4082,6575 4065,6563 4057,6557 4045,6545 4040,6526 L 4078,6517 C 4079,6522 4082,6526 4086,6532 4095,6542 4104,6544 4116,6544 4123,6544 4132,6543 4140,6537 4146,6534 4148,6528 4148,6523 4148,6517 4146,6513 4144,6511 4141,6507 4136,6505 4126,6501 4107,6494 4079,6488 4067,6468 4064,6461 4061,6450 4061,6442 4061,6425 4068,6411 4079,6402 4095,6387 4114,6386 4130,6386 4146,6386 4165,6387 4183,6404 4191,6411 4196,6419 4198,6430 L 4163,6441 Z"/>
        </g>
       </g>
       <g class="com.sun.star.drawing.PolyPolygonShape">
        <g id="id18">
         <rect class="BoundingBox" stroke="none" fill="none" x="4230" y="6388" width="134" height="189"/>
         <path fill="rgb(0,114,188)" stroke="none" d="M 4363,6389 L 4357,6423 4315,6423 4291,6575 4248,6575 4273,6423 4231,6423 4235,6389 4363,6389 Z"/>
        </g>
       </g>
       <g class="com.sun.star.drawing.PolyPolygonShape">
        <g id="id19">
         <rect class="BoundingBox" stroke="none" fill="none" x="4364" y="6388" width="73" height="189"/>
         <path fill="rgb(0,114,188)" stroke="none" d="M 4394,6389 L 4364,6575 4406,6575 4436,6389 4394,6389 Z"/>
        </g>
       </g>
       <g class="com.sun.star.drawing.PolyPolygonShape">
        <g id="id20">
         <rect class="BoundingBox" stroke="none" fill="none" x="4461" y="6388" width="135" height="189"/>
         <path fill="rgb(0,114,188)" stroke="none" d="M 4594,6389 L 4588,6423 4546,6423 4523,6575 4481,6575 4504,6423 4462,6423 4468,6389 4594,6389 Z"/>
        </g>
       </g>
       <g class="com.sun.star.drawing.ClosedBezierShape">
        <g id="id21">
         <rect class="BoundingBox" stroke="none" fill="none" x="4604" y="6388" width="160" height="191"/>
         <path fill="rgb(0,114,188)" stroke="none" d="M 4651,6491 C 4649,6504 4648,6511 4648,6518 4648,6529 4651,6535 4655,6537 4658,6541 4664,6544 4675,6544 4684,6544 4694,6543 4701,6532 4707,6525 4710,6513 4711,6503 L 4730,6389 4762,6389 4746,6498 C 4743,6507 4742,6519 4737,6535 4732,6547 4726,6557 4716,6565 4701,6575 4685,6578 4668,6578 4656,6578 4641,6576 4626,6567 4610,6556 4605,6541 4605,6524 4605,6517 4605,6510 4606,6503 L 4625,6389 4668,6389 4651,6491 Z"/>
        </g>
       </g>
       <g class="com.sun.star.drawing.PolyPolygonShape">
        <g id="id22">
         <rect class="BoundingBox" stroke="none" fill="none" x="4787" y="6388" width="134" height="189"/>
         <path fill="rgb(0,114,188)" stroke="none" d="M 4920,6389 L 4914,6423 4871,6423 4847,6575 4805,6575 4829,6423 4787,6423 4792,6389 4920,6389 Z"/>
        </g>
       </g>
       <g class="com.sun.star.drawing.PolyPolygonShape">
        <g id="id23">
         <rect class="BoundingBox" stroke="none" fill="none" x="4920" y="6388" width="157" height="189"/>
         <path fill="rgb(0,114,188)" stroke="none" d="M 5071,6423 L 4986,6423 4980,6462 5048,6462 5042,6494 4974,6494 4968,6541 5053,6541 5048,6575 4921,6575 4951,6389 5076,6389 5071,6423 Z"/>
        </g>
       </g>
       <g class="com.sun.star.drawing.ClosedBezierShape">
        <g id="id24">
         <rect class="BoundingBox" stroke="none" fill="none" x="5151" y="6387" width="163" height="193"/>
         <path fill="rgb(0,114,188)" stroke="none" d="M 5200,6531 C 5206,6542 5214,6545 5225,6545 5234,6545 5244,6543 5251,6532 5264,6516 5270,6481 5270,6461 5270,6454 5269,6442 5264,6434 5260,6427 5252,6419 5239,6419 5227,6419 5219,6424 5213,6434 5201,6449 5195,6482 5195,6505 5195,6512 5196,6523 5200,6531 Z M 5288,6402 C 5300,6412 5313,6433 5313,6466 5313,6493 5303,6526 5291,6544 5282,6556 5262,6579 5221,6579 5202,6579 5185,6574 5171,6559 5157,6543 5152,6523 5152,6500 5152,6474 5157,6438 5182,6412 5200,6393 5219,6387 5241,6387 5254,6387 5272,6389 5288,6402 Z"/>
        </g>
       </g>
       <g class="com.sun.star.drawing.PolyPolygonShape">
        <g id="id25">
         <rect class="BoundingBox" stroke="none" fill="none" x="5323" y="6389" width="154" height="189"/>
         <path fill="rgb(0,114,188)" stroke="none" d="M 5353,6390 L 5324,6576 5365,6576 5377,6496 5442,6496 5446,6463 5382,6463 5389,6424 5469,6424 5475,6390 5353,6390 Z"/>
        </g>
       </g>
       <g class="com.sun.star.drawing.ClosedBezierShape">
        <g id="id26">
         <rect class="BoundingBox" stroke="none" fill="none" x="5525" y="6389" width="161" height="189"/>
         <path fill="rgb(0,114,188)" stroke="none" d="M 5582,6472 L 5610,6472 C 5618,6472 5626,6471 5635,6463 5641,6459 5643,6452 5643,6442 5643,6436 5642,6431 5637,6427 5632,6423 5624,6422 5619,6422 L 5591,6422 5582,6472 Z M 5618,6390 C 5634,6390 5657,6391 5672,6405 5682,6416 5685,6429 5685,6438 5685,6462 5674,6480 5660,6491 5642,6504 5618,6505 5604,6505 L 5578,6505 5567,6576 5525,6576 5554,6390 5618,6390 Z"/>
        </g>
       </g>
       <g class="com.sun.star.drawing.PolyPolygonShape">
        <g id="id27">
         <rect class="BoundingBox" stroke="none" fill="none" x="5686" y="6389" width="172" height="189"/>
         <path fill="rgb(0,114,188)" stroke="none" d="M 5814,6390 L 5803,6462 5744,6462 5755,6390 5715,6390 5686,6576 5727,6576 5738,6496 5797,6496 5785,6576 5825,6576 5856,6390 5814,6390 Z"/>
        </g>
       </g>
       <g class="com.sun.star.drawing.PolyPolygonShape">
        <g id="id28">
         <rect class="BoundingBox" stroke="none" fill="none" x="5863" y="6389" width="161" height="189"/>
         <path fill="rgb(0,114,188)" stroke="none" d="M 5985,6390 L 5938,6461 5911,6390 5864,6390 5908,6497 5896,6576 5936,6576 5948,6497 6022,6390 5985,6390 Z"/>
        </g>
       </g>
       <g class="com.sun.star.drawing.ClosedBezierShape">
        <g id="id29">
         <rect class="BoundingBox" stroke="none" fill="none" x="5993" y="6387" width="161" height="193"/>
         <path fill="rgb(0,114,188)" stroke="none" d="M 6118,6442 C 6116,6437 6113,6433 6109,6429 6102,6421 6090,6419 6083,6419 6077,6419 6070,6419 6064,6425 6059,6429 6058,6434 6058,6438 6058,6441 6059,6444 6060,6447 6064,6452 6070,6456 6083,6460 6094,6463 6104,6466 6116,6472 6121,6474 6134,6480 6140,6493 6144,6501 6146,6511 6146,6518 6146,6531 6140,6549 6123,6563 6108,6575 6090,6579 6070,6579 6054,6579 6035,6576 6019,6565 6010,6559 5998,6548 5994,6528 L 6032,6518 C 6033,6523 6035,6529 6040,6534 6050,6543 6059,6545 6071,6545 6078,6545 6087,6545 6095,6540 6101,6535 6103,6529 6103,6524 6103,6519 6101,6515 6098,6512 6096,6509 6091,6506 6081,6503 6062,6496 6033,6490 6021,6469 6016,6462 6015,6452 6015,6443 6015,6428 6022,6412 6033,6403 6050,6390 6069,6387 6085,6387 6101,6387 6120,6389 6137,6405 6145,6414 6150,6422 6152,6431 L 6118,6442 Z"/>
        </g>
       </g>
       <g class="com.sun.star.drawing.PolyPolygonShape">
        <g id="id30">
         <rect class="BoundingBox" stroke="none" fill="none" x="6162" y="6389" width="74" height="189"/>
         <path fill="rgb(0,114,188)" stroke="none" d="M 6193,6390 L 6163,6576 6206,6576 6234,6390 6193,6390 Z"/>
        </g>
       </g>
       <g class="com.sun.star.drawing.ClosedBezierShape">
        <g id="id31">
         <rect class="BoundingBox" stroke="none" fill="none" x="6245" y="6387" width="155" height="193"/>
         <path fill="rgb(0,114,188)" stroke="none" d="M 6362,6459 C 6362,6453 6361,6442 6356,6434 6350,6424 6343,6419 6332,6419 6314,6419 6306,6431 6300,6443 6292,6462 6288,6488 6288,6507 6288,6516 6289,6528 6295,6536 6300,6542 6307,6545 6315,6545 6331,6545 6348,6537 6354,6509 L 6391,6516 C 6388,6526 6383,6536 6377,6545 6360,6569 6340,6579 6314,6579 6286,6579 6269,6563 6261,6553 6251,6538 6245,6519 6245,6499 6245,6471 6253,6441 6269,6419 6284,6400 6305,6387 6334,6387 6360,6387 6374,6397 6381,6405 6393,6417 6399,6437 6399,6455 L 6362,6459 Z"/>
        </g>
       </g>
       <g class="com.sun.star.drawing.ClosedBezierShape">
        <g id="id32">
         <rect class="BoundingBox" stroke="none" fill="none" x="6397" y="6387" width="161" height="193"/>
         <path fill="rgb(0,114,188)" stroke="none" d="M 6522,6442 C 6519,6437 6517,6433 6513,6429 6504,6421 6493,6419 6486,6419 6480,6419 6472,6419 6466,6425 6462,6429 6461,6434 6461,6438 6461,6441 6461,6444 6463,6447 6466,6452 6473,6456 6486,6460 6497,6463 6506,6466 6520,6472 6525,6474 6537,6480 6544,6493 6548,6501 6549,6511 6549,6518 6549,6531 6544,6549 6528,6563 6511,6575 6493,6579 6472,6579 6457,6579 6438,6576 6423,6565 6414,6559 6402,6548 6398,6528 L 6436,6518 C 6437,6523 6439,6529 6444,6534 6452,6543 6462,6545 6474,6545 6480,6545 6489,6545 6497,6540 6503,6535 6505,6529 6505,6524 6505,6519 6504,6515 6501,6512 6499,6509 6493,6506 6482,6503 6464,6496 6437,6490 6425,6469 6420,6462 6418,6452 6418,6443 6418,6428 6425,6412 6437,6403 6451,6390 6472,6387 6487,6387 6504,6387 6523,6389 6541,6405 6548,6414 6553,6422 6556,6431 L 6522,6442 Z"/>
        </g>
       </g>
       <g class="com.sun.star.drawing.PolyPolygonShape">
        <g id="id33">
         <rect class="BoundingBox" stroke="none" fill="none" x="6611" y="6389" width="159" height="189"/>
         <path fill="rgb(0,114,188)" stroke="none" d="M 6708,6433 L 6717,6500 6678,6500 6708,6433 Z M 6696,6390 L 6611,6576 6646,6576 6665,6532 6720,6532 6725,6576 6768,6576 6740,6390 6696,6390 Z"/>
        </g>
       </g>
       <g class="com.sun.star.drawing.ClosedBezierShape">
        <g id="id34">
         <rect class="BoundingBox" stroke="none" fill="none" x="6781" y="6389" width="176" height="189"/>
         <path fill="rgb(0,114,188)" stroke="none" d="M 6905,6512 C 6905,6509 6904,6499 6907,6488 L 6922,6390 6956,6390 6927,6576 6891,6576 6841,6454 6836,6438 C 6836,6452 6835,6458 6834,6466 L 6817,6576 6781,6576 6812,6390 6854,6390 6905,6512 Z"/>
        </g>
       </g>
       <g class="com.sun.star.drawing.ClosedBezierShape">
        <g id="id35">
         <rect class="BoundingBox" stroke="none" fill="none" x="6959" y="6389" width="168" height="189"/>
         <path fill="rgb(0,114,188)" stroke="none" d="M 7007,6543 L 7032,6543 C 7044,6543 7065,6541 7077,6510 7081,6498 7084,6481 7084,6468 7084,6456 7083,6440 7070,6430 7062,6423 7052,6422 7044,6422 L 7025,6422 7007,6543 Z M 7049,6390 C 7062,6390 7088,6391 7106,6409 7119,6423 7126,6446 7126,6469 7126,6498 7116,6532 7096,6553 7076,6573 7054,6576 7035,6576 L 6959,6576 6988,6390 7049,6390 Z"/>
        </g>
       </g>
       <g class="com.sun.star.drawing.PolyPolygonShape">
        <g id="id36">
         <rect class="BoundingBox" stroke="none" fill="none" x="7204" y="6389" width="134" height="189"/>
         <path fill="rgb(0,114,188)" stroke="none" d="M 7209,6390 L 7205,6424 7248,6424 7223,6576 7265,6576 7289,6424 7331,6424 7337,6390 7209,6390 Z"/>
        </g>
       </g>
       <g class="com.sun.star.drawing.PolyPolygonShape">
        <g id="id37">
         <rect class="BoundingBox" stroke="none" fill="none" x="7323" y="6389" width="157" height="189"/>
         <path fill="rgb(0,114,188)" stroke="none" d="M 7352,6390 L 7324,6576 7449,6576 7454,6542 7370,6542 7378,6496 7443,6496 7449,6463 7382,6463 7388,6424 7473,6424 7479,6390 7352,6390 Z"/>
        </g>
       </g>
       <g class="com.sun.star.drawing.ClosedBezierShape">
        <g id="id38">
         <rect class="BoundingBox" stroke="none" fill="none" x="7480" y="6387" width="156" height="193"/>
         <path fill="rgb(0,114,188)" stroke="none" d="M 7597,6459 C 7597,6453 7596,6442 7591,6434 7586,6424 7579,6419 7568,6419 7552,6419 7542,6431 7536,6443 7528,6462 7523,6488 7523,6507 7523,6516 7524,6528 7531,6536 7536,6542 7543,6545 7553,6545 7566,6545 7583,6537 7590,6509 L 7627,6516 C 7623,6526 7618,6536 7612,6545 7596,6569 7575,6579 7552,6579 7522,6579 7505,6563 7497,6553 7486,6538 7480,6519 7480,6499 7480,6471 7490,6441 7505,6419 7519,6400 7541,6387 7571,6387 7596,6387 7610,6397 7617,6405 7628,6417 7634,6437 7635,6455 L 7597,6459 Z"/>
        </g>
       </g>
       <g class="com.sun.star.drawing.PolyPolygonShape">
        <g id="id39">
         <rect class="BoundingBox" stroke="none" fill="none" x="7640" y="6389" width="173" height="189"/>
         <path fill="rgb(0,114,188)" stroke="none" d="M 7770,6390 L 7759,6462 7701,6462 7712,6390 7670,6390 7641,6576 7681,6576 7696,6496 7753,6496 7741,6576 7783,6576 7811,6390 7770,6390 Z"/>
        </g>
       </g>
       <g class="com.sun.star.drawing.ClosedBezierShape">
        <g id="id40">
         <rect class="BoundingBox" stroke="none" fill="none" x="7816" y="6389" width="176" height="189"/>
         <path fill="rgb(0,114,188)" stroke="none" d="M 7939,6512 L 7940,6512 C 7939,6509 7939,6499 7940,6488 L 7956,6390 7990,6390 7960,6576 7926,6576 7876,6454 7871,6438 7870,6438 C 7870,6452 7870,6458 7869,6466 L 7852,6576 7816,6576 7846,6390 7889,6390 7939,6512 Z"/>
        </g>
       </g>
       <g class="com.sun.star.drawing.ClosedBezierShape">
        <g id="id41">
         <rect class="BoundingBox" stroke="none" fill="none" x="7998" y="6387" width="163" height="193"/>
         <path fill="rgb(0,114,188)" stroke="none" d="M 8047,6531 C 8052,6542 8061,6545 8071,6545 8082,6545 8090,6543 8098,6532 8109,6516 8115,6481 8115,6461 8115,6454 8115,6442 8111,6434 8107,6427 8099,6419 8086,6419 8075,6419 8065,6424 8059,6434 8047,6449 8041,6482 8041,6505 8041,6512 8043,6523 8047,6531 Z M 8133,6402 C 8146,6412 8159,6433 8159,6466 8159,6493 8150,6526 8138,6544 8129,6556 8107,6579 8068,6579 8049,6579 8032,6574 8018,6559 8003,6543 7999,6523 7999,6500 7999,6474 8003,6438 8028,6412 8047,6393 8065,6387 8088,6387 8101,6387 8118,6389 8133,6402 Z"/>
        </g>
       </g>
       <g class="com.sun.star.drawing.PolyPolygonShape">
        <g id="id42">
         <rect class="BoundingBox" stroke="none" fill="none" x="8171" y="6389" width="125" height="189"/>
         <path fill="rgb(0,114,188)" stroke="none" d="M 8200,6390 L 8171,6576 8288,6576 8294,6542 8218,6542 8242,6390 8200,6390 Z"/>
        </g>
       </g>
       <g class="com.sun.star.drawing.ClosedBezierShape">
        <g id="id43">
         <rect class="BoundingBox" stroke="none" fill="none" x="8313" y="6387" width="163" height="193"/>
         <path fill="rgb(0,114,188)" stroke="none" d="M 8361,6531 C 8367,6542 8375,6545 8386,6545 8396,6545 8404,6543 8412,6532 8424,6516 8430,6481 8430,6461 8430,6454 8429,6442 8424,6434 8421,6427 8413,6419 8400,6419 8388,6419 8380,6424 8374,6434 8361,6449 8355,6482 8355,6505 8355,6512 8356,6523 8361,6531 Z M 8448,6402 C 8461,6412 8474,6433 8474,6466 8474,6493 8465,6526 8450,6544 8442,6556 8422,6579 8382,6579 8363,6579 8347,6574 8332,6559 8318,6543 8313,6523 8313,6500 8313,6474 8318,6438 8343,6412 8361,6393 8380,6387 8403,6387 8416,6387 8432,6389 8448,6402 Z"/>
        </g>
       </g>
       <g class="com.sun.star.drawing.ClosedBezierShape">
        <g id="id44">
         <rect class="BoundingBox" stroke="none" fill="none" x="8490" y="6387" width="159" height="193"/>
         <path fill="rgb(0,114,188)" stroke="none" d="M 8607,6453 C 8607,6444 8604,6435 8601,6430 8593,6421 8585,6419 8579,6419 8568,6419 8560,6424 8553,6434 8542,6449 8534,6478 8534,6506 8534,6515 8535,6526 8541,6535 8545,6541 8552,6545 8564,6545 8578,6545 8586,6538 8591,6532 8596,6526 8599,6517 8601,6509 L 8565,6509 8571,6475 8646,6475 8630,6576 8609,6576 8605,6555 8604,6555 C 8601,6561 8596,6565 8590,6568 8580,6575 8571,6579 8555,6579 8545,6579 8525,6576 8511,6561 8499,6549 8491,6530 8491,6504 8491,6481 8496,6454 8509,6431 8518,6415 8539,6387 8584,6387 8599,6387 8618,6391 8634,6406 8641,6416 8647,6430 8647,6447 L 8607,6453 Z"/>
        </g>
       </g>
       <g class="com.sun.star.drawing.PolyPolygonShape">
        <g id="id45">
         <rect class="BoundingBox" stroke="none" fill="none" x="8664" y="6389" width="161" height="189"/>
         <path fill="rgb(0,114,188)" stroke="none" d="M 8787,6390 L 8739,6461 8713,6390 8665,6390 8709,6497 8696,6576 8738,6576 8750,6497 8823,6390 8787,6390 Z"/>
        </g>
       </g>
      </g>
     </g>
    </g>
   </g>
  </g>
 </g>
</svg>