<?xml version="1.0" encoding="UTF-8"?>
<!DOCTYPE svg PUBLIC "-//W3C//DTD SVG 1.1//EN" "http://www.w3.org/Graphics/SVG/1.1/DTD/svg11.dtd">
<svg version="1.2" width="100mm" height="100mm" viewBox="0 0 10000 10000" preserveAspectRatio="xMidYMid" fill-rule="evenodd" stroke-width="28.222" stroke-linejoin="round" xmlns="http://www.w3.org/2000/svg" xmlns:ooo="http://xml.openoffice.org/svg/export" xmlns:xlink="http://www.w3.org/1999/xlink" xmlns:presentation="http://sun.com/xmlns/staroffice/presentation" xmlns:smil="http://www.w3.org/2001/SMIL20/" xmlns:anim="urn:oasis:names:tc:opendocument:xmlns:animation:1.0" xmlns:svg="urn:oasis:names:tc:opendocument:xmlns:svg-compatible:1.0" xml:space="preserve">
 <defs class="ClipPathGroup">
  <clipPath id="presentation_clip_path" clipPathUnits="userSpaceOnUse">
   <rect x="0" y="0" width="10000" height="10000"/>
  </clipPath>
  <clipPath id="presentation_clip_path_shrink" clipPathUnits="userSpaceOnUse">
   <rect x="10" y="10" width="9980" height="9980"/>
  </clipPath>
 </defs>
 <defs class="TextShapeIndex">
  <g ooo:slide="id1" ooo:id-list="id3 id4 id5 id6 id7 id8 id9 id10 id11 id12 id13 id14 id15 id16 id17 id18 id19 id20 id21 id22 id23 id24 id25 id26 id27 id28 id29 id30 id31 id32 id33 id34 id35 id36 id37 id38 id39 id40 id41 id42 id43 id44"/>
 </defs>
 <defs class="EmbeddedBulletChars">
  <g id="bullet-char-template-57356" transform="scale(0.00048828125,-0.00048828125)">
   <path d="M 580,1141 L 1163,571 580,0 -4,571 580,1141 Z"/>
  </g>
  <g id="bullet-char-template-57354" transform="scale(0.00048828125,-0.00048828125)">
   <path d="M 8,1128 L 1137,1128 1137,0 8,0 8,1128 Z"/>
  </g>
  <g id="bullet-char-template-10146" transform="scale(0.00048828125,-0.00048828125)">
   <path d="M 174,0 L 602,739 174,1481 1456,739 174,0 Z M 1358,739 L 309,1346 659,739 1358,739 Z"/>
  </g>
  <g id="bullet-char-template-10132" transform="scale(0.00048828125,-0.00048828125)">
   <path d="M 2015,739 L 1276,0 717,0 1260,543 174,543 174,936 1260,936 717,1481 1274,1481 2015,739 Z"/>
  </g>
  <g id="bullet-char-template-10007" transform="scale(0.00048828125,-0.00048828125)">
   <path d="M 0,-2 C -7,14 -16,27 -25,37 L 356,567 C 262,823 215,952 215,954 215,979 228,992 255,992 264,992 276,990 289,987 310,991 331,999 354,1012 L 381,999 492,748 772,1049 836,1024 860,1049 C 881,1039 901,1025 922,1006 886,937 835,863 770,784 769,783 710,716 594,584 L 774,223 C 774,196 753,168 711,139 L 727,119 C 717,90 699,76 672,76 641,76 570,178 457,381 L 164,-76 C 142,-110 111,-127 72,-127 30,-127 9,-110 8,-76 1,-67 -2,-52 -2,-32 -2,-23 -1,-13 0,-2 Z"/>
  </g>
  <g id="bullet-char-template-10004" transform="scale(0.00048828125,-0.00048828125)">
   <path d="M 285,-33 C 182,-33 111,30 74,156 52,228 41,333 41,471 41,549 55,616 82,672 116,743 169,778 240,778 293,778 328,747 346,684 L 369,508 C 377,444 397,411 428,410 L 1163,1116 C 1174,1127 1196,1133 1229,1133 1271,1133 1292,1118 1292,1087 L 1292,965 C 1292,929 1282,901 1262,881 L 442,47 C 390,-6 338,-33 285,-33 Z"/>
  </g>
  <g id="bullet-char-template-9679" transform="scale(0.00048828125,-0.00048828125)">
   <path d="M 813,0 C 632,0 489,54 383,161 276,268 223,411 223,592 223,773 276,916 383,1023 489,1130 632,1184 813,1184 992,1184 1136,1130 1245,1023 1353,916 1407,772 1407,592 1407,412 1353,268 1245,161 1136,54 992,0 813,0 Z"/>
  </g>
  <g id="bullet-char-template-8226" transform="scale(0.00048828125,-0.00048828125)">
   <path d="M 346,457 C 273,457 209,483 155,535 101,586 74,649 74,723 74,796 101,859 155,911 209,963 273,989 346,989 419,989 480,963 531,910 582,859 608,796 608,723 608,648 583,586 532,535 482,483 420,457 346,457 Z"/>
  </g>
  <g id="bullet-char-template-8211" transform="scale(0.00048828125,-0.00048828125)">
   <path d="M -4,459 L 1135,459 1135,606 -4,606 -4,459 Z"/>
  </g>
  <g id="bullet-char-template-61548" transform="scale(0.00048828125,-0.00048828125)">
   <path d="M 173,740 C 173,903 231,1043 346,1159 462,1274 601,1332 765,1332 928,1332 1067,1274 1183,1159 1299,1043 1357,903 1357,740 1357,577 1299,437 1183,322 1067,206 928,148 765,148 601,148 462,206 346,322 231,437 173,577 173,740 Z"/>
  </g>
 </defs>
 <g>
  <g id="id2" class="Master_Slide">
   <g id="bg-id2" class="Background"/>
   <g id="bo-id2" class="BackgroundObjects"/>
  </g>
 </g>
 <g class="SlideGroup">
  <g>
   <g id="container-id1">
    <g id="id1" class="Slide" clip-path="url(#presentation_clip_path)">
     <g class="Page">
      <g class="Group">
       <g class="com.sun.star.drawing.PolyPolygonShape">
        <g id="id3">
         <rect class="BoundingBox" stroke="none" fill="none" x="2184" y="4390" width="2035" height="1275"/>
         <path fill="rgb(0,114,188)" stroke="none" d="M 2442,4390 L 3164,4390 3188,5086 3197,5086 3497,4390 4218,4390 3960,5664 3522,5664 3726,4662 3715,4662 3260,5664 2855,5664 2815,4662 2802,4662 2598,5664 2184,5664 2442,4390 Z"/>
        </g>
       </g>
       <g class="com.sun.star.drawing.ClosedBezierShape">
        <g id="id4">
         <rect class="BoundingBox" stroke="none" fill="none" x="4148" y="4303" width="1778" height="1384"/>
         <path fill="rgb(0,114,188)" stroke="none" d="M 5218,5190 L 5247,5190 C 5384,5190 5460,5041 5460,4930 5460,4848 5413,4786 5327,4786 L 5300,4786 5218,5190 Z M 4855,4786 L 4828,4786 C 4699,4786 4612,4922 4612,5043 4612,5117 4657,5190 4744,5190 L 4773,5190 4855,4786 Z M 4652,5686 L 4692,5481 4604,5481 C 4270,5481 4148,5292 4148,5103 4148,4822 4373,4495 4817,4495 L 4893,4495 4933,4304 5420,4304 5382,4495 5458,4495 C 5637,4495 5924,4537 5924,4875 5924,5172 5711,5481 5276,5481 L 5180,5481 5140,5686 4652,5686 Z"/>
        </g>
       </g>
       <g class="com.sun.star.drawing.PolyPolygonShape">
        <g id="id5">
         <rect class="BoundingBox" stroke="none" fill="none" x="5952" y="4390" width="1425" height="1275"/>
         <path fill="rgb(0,114,188)" stroke="none" d="M 7376,4390 L 7300,4766 6870,4766 6688,5664 6200,5664 6382,4766 5952,4766 6029,4390 7376,4390 Z"/>
        </g>
       </g>
       <g class="com.sun.star.drawing.PolyPolygonShape">
        <g id="id6">
         <rect class="BoundingBox" stroke="none" fill="none" x="7226" y="4390" width="1646" height="1275"/>
         <path fill="rgb(0,114,188)" stroke="none" d="M 7973,4390 L 7825,5117 7832,5117 8302,4390 8871,4390 8613,5664 8125,5664 8271,4950 8264,4950 7796,5664 7226,5664 7484,4390 7973,4390 Z"/>
        </g>
       </g>
       <g class="com.sun.star.drawing.PolyPolygonShape">
        <g id="id7">
         <rect class="BoundingBox" stroke="none" fill="none" x="9249" y="5782" width="753" height="363"/>
         <path fill="rgb(0,114,188)" stroke="none" d="M 9249,6144 L 9318,5782 10001,5988 9249,6144 Z"/>
        </g>
       </g>
       <g class="com.sun.star.drawing.ClosedBezierShape">
        <g id="id8">
         <rect class="BoundingBox" stroke="none" fill="none" x="0" y="3499" width="9089" height="3005"/>
         <path fill="rgb(0,114,188)" stroke="none" d="M 9088,5865 L 2040,5865 C 1909,5865 1853,6009 1798,6149 1779,6198 1749,6274 1726,6306 1685,6264 1654,6066 1642,5988 L 1635,5945 C 1594,5677 1556,5393 1519,5120 1359,3923 1284,3503 1061,3499 782,3494 683,3989 389,5455 L 351,5647 C 307,5865 208,5865 165,5865 L 33,5865 0,6054 165,6054 C 276,6054 471,6006 536,5684 L 574,5492 C 755,4588 927,3736 1048,3693 1153,3805 1256,4577 1332,5145 1369,5419 1407,5703 1449,5974 L 1456,6016 C 1489,6233 1529,6502 1732,6502 1863,6502 1919,6357 1974,6218 1995,6164 2029,6078 2052,6054 L 9055,6054 9088,5865 Z"/>
        </g>
       </g>
       <g class="com.sun.star.drawing.PolyPolygonShape">
        <g id="id9">
         <rect class="BoundingBox" stroke="none" fill="none" x="2112" y="6236" width="231" height="189"/>
         <path fill="rgb(0,114,188)" stroke="none" d="M 2201,6236 L 2221,6355 2221,6356 2281,6236 2342,6236 2311,6424 2269,6424 2293,6277 2223,6424 2195,6424 2172,6278 2171,6277 2148,6424 2113,6424 2144,6236 2201,6236 Z"/>
        </g>
       </g>
       <g class="com.sun.star.drawing.ClosedBezierShape">
        <g id="id10">
         <rect class="BoundingBox" stroke="none" fill="none" x="2351" y="6233" width="171" height="195"/>
         <path fill="rgb(0,114,188)" stroke="none" d="M 2402,6378 C 2408,6389 2417,6393 2428,6393 2439,6393 2448,6390 2456,6379 2469,6363 2475,6330 2475,6308 2475,6300 2474,6288 2469,6280 2465,6274 2457,6266 2443,6266 2431,6266 2422,6271 2415,6280 2403,6296 2396,6331 2396,6352 2396,6360 2397,6370 2402,6378 Z M 2494,6248 C 2506,6258 2521,6279 2521,6314 2521,6342 2510,6373 2497,6391 2488,6403 2466,6427 2424,6427 2404,6427 2387,6421 2372,6406 2356,6390 2351,6370 2351,6347 2351,6322 2356,6285 2383,6258 2402,6239 2422,6233 2446,6233 2460,6233 2478,6234 2494,6248 Z"/>
        </g>
       </g>
       <g class="com.sun.star.drawing.ClosedBezierShape">
        <g id="id11">
         <rect class="BoundingBox" stroke="none" fill="none" x="2539" y="6233" width="164" height="195"/>
         <path fill="rgb(0,114,188)" stroke="none" d="M 2662,6306 C 2662,6299 2660,6288 2655,6280 2650,6270 2642,6266 2630,6266 2613,6266 2604,6278 2597,6290 2588,6309 2584,6336 2584,6354 2584,6363 2585,6375 2593,6384 2598,6390 2605,6393 2614,6393 2628,6393 2646,6385 2653,6356 L 2693,6363 C 2690,6373 2685,6383 2678,6393 2660,6418 2639,6427 2613,6427 2583,6427 2565,6411 2556,6400 2545,6386 2539,6367 2539,6347 2539,6319 2548,6287 2565,6266 2581,6246 2603,6233 2633,6233 2659,6233 2675,6243 2683,6251 2695,6264 2701,6284 2702,6301 L 2662,6306 Z"/>
        </g>
       </g>
       <g class="com.sun.star.drawing.ClosedBezierShape">
        <g id="id12">
         <rect class="BoundingBox" stroke="none" fill="none" x="2708" y="6236" width="185" height="189"/>
         <path fill="rgb(0,114,188)" stroke="none" d="M 2783,6236 L 2770,6311 2783,6311 C 2797,6311 2805,6308 2822,6277 2830,6260 2836,6248 2842,6242 2848,6237 2853,6236 2857,6236 L 2892,6236 C 2887,6240 2882,6245 2872,6262 2861,6280 2862,6280 2853,6295 2844,6309 2839,6314 2836,6316 2832,6320 2826,6322 2821,6323 L 2821,6324 C 2832,6326 2839,6334 2842,6339 2847,6346 2848,6353 2850,6360 2853,6371 2854,6378 2855,6386 2860,6408 2864,6417 2869,6424 L 2829,6424 C 2825,6424 2820,6421 2816,6407 2814,6398 2812,6387 2809,6372 2807,6360 2805,6353 2801,6348 2797,6344 2789,6342 2782,6342 L 2765,6342 2752,6424 2708,6424 2739,6236 2783,6236 Z"/>
        </g>
       </g>
       <g class="com.sun.star.drawing.ClosedBezierShape">
        <g id="id13">
         <rect class="BoundingBox" stroke="none" fill="none" x="2894" y="6233" width="171" height="195"/>
         <path fill="rgb(0,114,188)" stroke="none" d="M 2945,6378 C 2951,6389 2960,6393 2971,6393 2982,6393 2991,6390 2999,6379 3012,6363 3018,6330 3018,6308 3018,6300 3017,6288 3012,6280 3008,6274 3000,6266 2986,6266 2974,6266 2965,6271 2958,6280 2946,6296 2939,6331 2939,6352 2939,6360 2940,6370 2945,6378 Z M 3038,6248 C 3050,6258 3064,6279 3064,6314 3064,6342 3054,6373 3041,6391 3032,6403 3009,6427 2967,6427 2947,6427 2930,6421 2915,6406 2899,6390 2894,6370 2894,6347 2894,6322 2899,6285 2926,6258 2945,6239 2965,6233 2989,6233 3003,6233 3020,6234 3038,6248 Z"/>
        </g>
       </g>
       <g class="com.sun.star.drawing.ClosedBezierShape">
        <g id="id14">
         <rect class="BoundingBox" stroke="none" fill="none" x="3076" y="6236" width="169" height="189"/>
         <path fill="rgb(0,114,188)" stroke="none" d="M 3137,6311 L 3170,6311 C 3177,6311 3187,6310 3194,6304 3198,6300 3201,6295 3201,6288 3201,6274 3189,6269 3177,6269 L 3145,6269 3137,6311 Z M 3124,6391 L 3160,6391 C 3169,6391 3178,6391 3185,6383 3190,6378 3193,6372 3193,6365 3193,6356 3189,6350 3185,6347 3178,6343 3170,6342 3164,6342 L 3132,6342 3124,6391 Z M 3187,6236 C 3199,6236 3212,6238 3222,6244 3232,6249 3244,6260 3244,6281 3244,6297 3237,6308 3231,6314 3224,6320 3215,6325 3206,6326 L 3206,6327 C 3213,6329 3219,6332 3224,6336 3233,6345 3237,6357 3237,6369 3237,6381 3231,6397 3222,6407 3207,6422 3188,6424 3170,6424 L 3076,6424 3107,6236 3187,6236 Z"/>
        </g>
       </g>
       <g class="com.sun.star.drawing.ClosedBezierShape">
        <g id="id15">
         <rect class="BoundingBox" stroke="none" fill="none" x="3261" y="6233" width="164" height="195"/>
         <path fill="rgb(0,114,188)" stroke="none" d="M 3385,6306 C 3385,6299 3383,6288 3378,6280 3373,6270 3365,6266 3354,6266 3336,6266 3327,6278 3321,6290 3312,6309 3307,6336 3307,6354 3307,6363 3309,6375 3316,6384 3321,6390 3329,6393 3337,6393 3352,6393 3370,6385 3376,6356 L 3415,6363 C 3412,6373 3407,6383 3401,6393 3383,6418 3362,6427 3336,6427 3306,6427 3287,6411 3278,6400 3268,6386 3261,6367 3261,6347 3261,6319 3270,6287 3287,6266 3303,6246 3326,6233 3357,6233 3383,6233 3398,6243 3405,6251 3417,6264 3424,6284 3424,6301 L 3385,6306 Z"/>
        </g>
       </g>
       <g class="com.sun.star.drawing.ClosedBezierShape">
        <g id="id16">
         <rect class="BoundingBox" stroke="none" fill="none" x="3431" y="6236" width="185" height="189"/>
         <path fill="rgb(0,114,188)" stroke="none" d="M 3505,6236 L 3493,6311 3505,6311 C 3519,6311 3528,6308 3544,6277 3552,6260 3558,6248 3565,6242 3570,6237 3575,6236 3580,6236 L 3615,6236 C 3609,6240 3605,6245 3594,6262 3584,6280 3584,6280 3575,6295 3566,6309 3561,6314 3559,6316 3554,6320 3548,6322 3543,6323 L 3543,6324 C 3554,6326 3561,6334 3564,6339 3569,6346 3571,6353 3572,6360 3575,6371 3576,6378 3578,6386 3582,6408 3587,6417 3592,6424 L 3551,6424 C 3547,6424 3542,6421 3537,6407 3535,6398 3534,6387 3531,6372 3530,6360 3528,6353 3523,6348 3519,6344 3511,6342 3504,6342 L 3487,6342 3474,6424 3431,6424 3461,6236 3505,6236 Z"/>
        </g>
       </g>
       <g class="com.sun.star.drawing.ClosedBezierShape">
        <g id="id17">
         <rect class="BoundingBox" stroke="none" fill="none" x="3610" y="6236" width="184" height="189"/>
         <path fill="rgb(0,114,188)" stroke="none" d="M 3686,6236 L 3669,6336 C 3669,6340 3667,6348 3664,6353 3671,6343 3673,6340 3675,6338 L 3746,6249 3748,6236 3792,6236 3761,6424 3717,6424 3734,6321 C 3735,6316 3736,6309 3738,6304 3735,6308 3731,6316 3729,6318 L 3656,6409 3654,6424 3610,6424 3641,6236 3686,6236 Z"/>
        </g>
       </g>
       <g class="com.sun.star.drawing.ClosedBezierShape">
        <g id="id18">
         <rect class="BoundingBox" stroke="none" fill="none" x="3797" y="6189" width="184" height="236"/>
         <path fill="rgb(0,114,188)" stroke="none" d="M 3890,6189 C 3890,6192 3890,6196 3894,6200 3896,6202 3901,6205 3908,6205 3912,6205 3917,6204 3922,6200 3926,6196 3927,6192 3928,6189 L 3961,6189 C 3958,6202 3951,6210 3943,6216 3932,6223 3918,6226 3905,6226 3893,6226 3877,6223 3868,6215 3862,6211 3857,6201 3857,6189 L 3890,6189 Z M 3873,6236 L 3856,6337 C 3855,6341 3853,6349 3852,6354 3858,6344 3860,6341 3861,6339 L 3932,6249 3935,6236 3979,6236 3948,6424 3904,6424 3921,6322 C 3922,6317 3923,6310 3924,6305 3922,6309 3917,6317 3915,6319 L 3843,6409 3841,6424 3797,6424 3828,6236 3873,6236 Z"/>
        </g>
       </g>
       <g class="com.sun.star.drawing.ClosedBezierShape">
        <g id="id19">
         <rect class="BoundingBox" stroke="none" fill="none" x="4052" y="6230" width="211" height="196"/>
         <path fill="rgb(0,114,188)" stroke="none" d="M 4170,6372 C 4187,6371 4200,6366 4210,6353 4217,6344 4220,6330 4220,6318 4220,6301 4213,6292 4206,6287 4200,6284 4192,6282 4184,6283 L 4170,6372 Z M 4144,6283 C 4131,6283 4118,6289 4110,6296 4100,6306 4095,6321 4095,6335 4095,6348 4100,6357 4104,6361 4111,6368 4121,6372 4129,6371 L 4144,6283 Z M 4195,6230 L 4191,6252 C 4212,6252 4236,6258 4250,6276 4260,6289 4262,6304 4262,6317 4262,6327 4260,6359 4234,6382 4219,6395 4195,6402 4166,6402 L 4163,6425 4119,6425 4123,6401 C 4097,6402 4080,6393 4070,6384 4062,6375 4053,6360 4053,6337 4053,6315 4060,6287 4092,6267 4108,6257 4124,6252 4147,6252 L 4151,6230 4195,6230 Z"/>
        </g>
       </g>
       <g class="com.sun.star.drawing.ClosedBezierShape">
        <g id="id20">
         <rect class="BoundingBox" stroke="none" fill="none" x="4273" y="6236" width="183" height="189"/>
         <path fill="rgb(0,114,188)" stroke="none" d="M 4348,6236 L 4331,6336 C 4331,6340 4329,6348 4327,6353 4333,6343 4335,6340 4337,6338 L 4409,6249 4411,6236 4455,6236 4424,6424 4379,6424 4397,6321 C 4398,6316 4399,6309 4401,6304 4398,6308 4394,6316 4391,6318 L 4319,6409 4317,6424 4273,6424 4304,6236 4348,6236 Z"/>
        </g>
       </g>
       <g class="com.sun.star.drawing.ClosedBezierShape">
        <g id="id21">
         <rect class="BoundingBox" stroke="none" fill="none" x="4455" y="6233" width="162" height="195"/>
         <path fill="rgb(0,114,188)" stroke="none" d="M 4472,6287 C 4475,6275 4482,6258 4500,6246 4512,6239 4529,6233 4553,6233 4573,6233 4586,6237 4594,6242 4611,6252 4616,6267 4616,6279 4616,6293 4610,6304 4602,6313 4598,6316 4591,6323 4579,6326 L 4579,6327 C 4586,6328 4594,6332 4600,6338 4604,6343 4609,6351 4609,6365 4609,6382 4601,6402 4581,6415 4564,6425 4543,6427 4526,6427 4506,6427 4486,6424 4471,6407 4462,6398 4457,6386 4455,6373 L 4493,6367 C 4495,6376 4499,6381 4501,6383 4510,6392 4519,6393 4529,6393 4545,6393 4553,6387 4556,6385 4563,6379 4565,6372 4565,6366 4565,6360 4563,6353 4559,6350 4552,6344 4540,6344 4534,6344 L 4513,6344 4518,6312 4541,6312 C 4549,6312 4560,6308 4565,6304 4570,6300 4574,6294 4574,6285 4574,6280 4572,6275 4567,6271 4562,6267 4556,6266 4549,6266 4540,6266 4532,6267 4523,6274 4517,6277 4511,6284 4508,6293 L 4472,6287 Z"/>
        </g>
       </g>
       <g class="com.sun.star.drawing.ClosedBezierShape">
        <g id="id22">
         <rect class="BoundingBox" stroke="none" fill="none" x="4628" y="6236" width="184" height="189"/>
         <path fill="rgb(0,114,188)" stroke="none" d="M 4703,6236 L 4686,6336 C 4685,6340 4684,6348 4682,6353 4688,6343 4690,6340 4691,6338 L 4764,6249 4766,6236 4810,6236 4779,6424 4734,6424 4752,6321 C 4753,6316 4754,6309 4755,6304 4753,6308 4749,6316 4745,6318 L 4674,6409 4672,6424 4628,6424 4659,6236 4703,6236 Z"/>
        </g>
       </g>
       <g class="com.sun.star.drawing.ClosedBezierShape">
        <g id="id23">
         <rect class="BoundingBox" stroke="none" fill="none" x="4815" y="6236" width="185" height="189"/>
         <path fill="rgb(0,114,188)" stroke="none" d="M 4889,6236 L 4877,6311 4889,6311 C 4903,6311 4912,6308 4927,6277 4935,6260 4942,6248 4948,6242 4953,6237 4959,6236 4963,6236 L 4999,6236 C 4992,6240 4988,6245 4977,6262 4967,6280 4968,6280 4958,6295 4950,6309 4944,6314 4942,6316 4937,6320 4931,6322 4926,6323 L 4926,6324 C 4937,6326 4944,6334 4947,6339 4952,6346 4954,6353 4956,6360 4958,6371 4959,6378 4961,6386 4965,6408 4970,6417 4975,6424 L 4934,6424 C 4930,6424 4925,6421 4921,6407 4919,6398 4918,6387 4915,6372 4914,6360 4912,6353 4907,6348 4903,6344 4896,6342 4889,6342 L 4872,6342 4859,6424 4815,6424 4845,6236 4889,6236 Z"/>
        </g>
       </g>
       <g class="com.sun.star.drawing.ClosedBezierShape">
        <g id="id24">
         <rect class="BoundingBox" stroke="none" fill="none" x="5001" y="6233" width="171" height="195"/>
         <path fill="rgb(0,114,188)" stroke="none" d="M 5052,6378 C 5059,6389 5067,6393 5079,6393 5089,6393 5098,6390 5106,6379 5119,6363 5126,6330 5126,6308 5126,6300 5124,6288 5119,6280 5116,6274 5108,6266 5093,6266 5082,6266 5073,6271 5066,6280 5052,6296 5046,6331 5046,6352 5046,6360 5047,6370 5052,6378 Z M 5144,6248 C 5157,6258 5171,6279 5171,6314 5171,6342 5161,6373 5147,6391 5138,6403 5116,6427 5075,6427 5055,6427 5036,6421 5021,6406 5006,6390 5001,6370 5001,6347 5001,6322 5006,6285 5032,6258 5052,6239 5072,6233 5096,6233 5110,6233 5128,6234 5144,6248 Z"/>
        </g>
       </g>
       <g class="com.sun.star.drawing.PolyPolygonShape">
        <g id="id25">
         <rect class="BoundingBox" stroke="none" fill="none" x="5173" y="6332" width="71" height="36"/>
         <path fill="rgb(0,114,188)" stroke="none" d="M 5243,6333 L 5178,6333 5173,6367 5238,6367 5243,6333 Z"/>
        </g>
       </g>
       <g class="com.sun.star.drawing.PolyPolygonShape">
        <g id="id26">
         <rect class="BoundingBox" stroke="none" fill="none" x="5252" y="6236" width="142" height="189"/>
         <path fill="rgb(0,114,188)" stroke="none" d="M 5393,6236 L 5387,6270 5343,6270 5317,6424 5274,6424 5299,6270 5253,6270 5259,6236 5393,6236 Z"/>
        </g>
       </g>
       <g class="com.sun.star.drawing.PolyPolygonShape">
        <g id="id27">
         <rect class="BoundingBox" stroke="none" fill="none" x="5379" y="6236" width="165" height="189"/>
         <path fill="rgb(0,114,188)" stroke="none" d="M 5537,6270 L 5449,6270 5442,6311 5513,6311 5507,6342 5436,6342 5428,6388 5518,6388 5513,6424 5379,6424 5410,6236 5543,6236 5537,6270 Z"/>
        </g>
       </g>
       <g class="com.sun.star.drawing.PolyPolygonShape">
        <g id="id28">
         <rect class="BoundingBox" stroke="none" fill="none" x="5518" y="6236" width="196" height="189"/>
         <path fill="rgb(0,114,188)" stroke="none" d="M 5646,6323 L 5691,6424 5641,6424 5612,6356 5560,6424 5519,6424 5596,6326 5553,6236 5605,6236 5629,6294 5673,6236 5713,6236 5646,6323 Z"/>
        </g>
       </g>
       <g class="com.sun.star.drawing.PolyPolygonShape">
        <g id="id29">
         <rect class="BoundingBox" stroke="none" fill="none" x="5709" y="6236" width="181" height="189"/>
         <path fill="rgb(0,114,188)" stroke="none" d="M 5783,6236 L 5771,6309 5834,6309 5846,6236 5889,6236 5859,6424 5815,6424 5828,6343 5766,6343 5753,6424 5709,6424 5740,6236 5783,6236 Z"/>
        </g>
       </g>
       <g class="com.sun.star.drawing.ClosedBezierShape">
        <g id="id30">
         <rect class="BoundingBox" stroke="none" fill="none" x="5895" y="6236" width="182" height="189"/>
         <path fill="rgb(0,114,188)" stroke="none" d="M 5969,6236 L 5953,6336 C 5952,6340 5950,6348 5949,6353 5955,6343 5956,6340 5958,6338 L 6030,6249 6032,6236 6076,6236 6045,6424 6001,6424 6018,6321 C 6019,6316 6021,6309 6022,6304 6020,6308 6015,6316 6013,6318 L 5941,6409 5938,6424 5895,6424 5925,6236 5969,6236 Z"/>
        </g>
       </g>
       <g class="com.sun.star.drawing.ClosedBezierShape">
        <g id="id31">
         <rect class="BoundingBox" stroke="none" fill="none" x="6095" y="6236" width="157" height="189"/>
         <path fill="rgb(0,114,188)" stroke="none" d="M 6148,6236 L 6140,6287 C 6139,6290 6139,6293 6139,6296 6139,6299 6139,6304 6142,6308 6147,6314 6156,6314 6164,6314 6172,6314 6184,6313 6194,6312 L 6206,6236 6251,6236 6219,6424 6176,6424 6188,6346 C 6178,6347 6163,6347 6150,6347 6139,6347 6118,6347 6106,6336 6101,6331 6095,6322 6095,6306 6095,6299 6096,6292 6097,6285 L 6106,6236 6148,6236 Z"/>
        </g>
       </g>
       <g class="com.sun.star.drawing.PolyPolygonShape">
        <g id="id32">
         <rect class="BoundingBox" stroke="none" fill="none" x="6256" y="6236" width="165" height="189"/>
         <path fill="rgb(0,114,188)" stroke="none" d="M 6414,6270 L 6325,6270 6318,6311 6389,6311 6383,6342 6313,6342 6306,6388 6395,6388 6389,6424 6256,6424 6287,6236 6420,6236 6414,6270 Z"/>
        </g>
       </g>
       <g class="com.sun.star.drawing.ClosedBezierShape">
        <g id="id33">
         <rect class="BoundingBox" stroke="none" fill="none" x="6422" y="6233" width="164" height="195"/>
         <path fill="rgb(0,114,188)" stroke="none" d="M 6545,6306 C 6545,6299 6544,6288 6539,6280 6534,6270 6526,6266 6513,6266 6496,6266 6487,6278 6481,6290 6472,6309 6467,6336 6467,6354 6467,6363 6469,6375 6476,6384 6481,6390 6489,6393 6497,6393 6512,6393 6530,6385 6537,6356 L 6576,6363 C 6573,6373 6568,6383 6562,6393 6544,6418 6522,6427 6496,6427 6466,6427 6448,6411 6439,6400 6428,6386 6422,6367 6422,6347 6422,6319 6431,6287 6448,6266 6464,6246 6486,6233 6516,6233 6544,6233 6559,6243 6566,6251 6578,6264 6584,6284 6585,6301 L 6545,6306 Z"/>
        </g>
       </g>
       <g class="com.sun.star.drawing.ClosedBezierShape">
        <g id="id34">
         <rect class="BoundingBox" stroke="none" fill="none" x="6592" y="6236" width="185" height="189"/>
         <path fill="rgb(0,114,188)" stroke="none" d="M 6667,6236 L 6655,6311 6667,6311 C 6681,6311 6690,6308 6705,6277 6713,6260 6719,6248 6726,6242 6731,6237 6736,6236 6740,6236 L 6776,6236 C 6770,6240 6765,6245 6755,6262 6744,6280 6745,6280 6736,6295 6727,6309 6722,6314 6720,6316 6715,6320 6709,6322 6704,6323 L 6704,6324 C 6715,6326 6722,6334 6725,6339 6730,6346 6732,6353 6733,6360 6736,6371 6737,6378 6738,6386 6743,6408 6748,6417 6752,6424 L 6712,6424 C 6708,6424 6703,6421 6699,6407 6697,6398 6695,6387 6693,6372 6692,6360 6690,6353 6685,6348 6681,6344 6673,6342 6666,6342 L 6649,6342 6636,6424 6592,6424 6622,6236 6667,6236 Z"/>
        </g>
       </g>
       <g class="com.sun.star.drawing.ClosedBezierShape">
        <g id="id35">
         <rect class="BoundingBox" stroke="none" fill="none" x="6771" y="6236" width="184" height="189"/>
         <path fill="rgb(0,114,188)" stroke="none" d="M 6846,6236 L 6829,6336 C 6829,6340 6827,6348 6825,6353 6831,6343 6833,6340 6834,6338 L 6907,6249 6909,6236 6953,6236 6922,6424 6877,6424 6894,6321 C 6895,6316 6896,6309 6897,6304 6895,6308 6891,6316 6888,6318 L 6817,6409 6815,6424 6771,6424 6802,6236 6846,6236 Z"/>
        </g>
       </g>
       <g class="com.sun.star.drawing.ClosedBezierShape">
        <g id="id36">
         <rect class="BoundingBox" stroke="none" fill="none" x="6958" y="6189" width="182" height="236"/>
         <path fill="rgb(0,114,188)" stroke="none" d="M 7050,6189 C 7050,6192 7050,6196 7054,6200 7056,6202 7060,6205 7068,6205 7072,6205 7077,6204 7082,6200 7087,6196 7088,6192 7088,6189 L 7122,6189 C 7119,6202 7112,6210 7104,6216 7093,6223 7078,6226 7065,6226 7053,6226 7037,6223 7028,6215 7022,6211 7017,6201 7017,6189 L 7050,6189 Z M 7032,6236 L 7016,6337 C 7015,6341 7013,6349 7012,6354 7018,6344 7020,6341 7021,6339 L 7093,6249 7096,6236 7139,6236 7109,6424 7064,6424 7081,6322 C 7081,6317 7083,6310 7084,6305 7082,6309 7077,6317 7075,6319 L 7004,6409 7002,6424 6958,6424 6989,6236 7032,6236 Z"/>
        </g>
       </g>
       <g class="com.sun.star.drawing.ClosedBezierShape">
        <g id="id37">
         <rect class="BoundingBox" stroke="none" fill="none" x="7208" y="6236" width="183" height="189"/>
         <path fill="rgb(0,114,188)" stroke="none" d="M 7284,6236 L 7267,6336 C 7265,6340 7264,6348 7262,6353 7269,6343 7271,6340 7272,6338 L 7344,6249 7346,6236 7390,6236 7359,6424 7315,6424 7332,6321 C 7333,6316 7334,6309 7335,6304 7333,6308 7329,6316 7326,6318 L 7254,6409 7252,6424 7208,6424 7239,6236 7284,6236 Z"/>
        </g>
       </g>
       <g class="com.sun.star.drawing.PolyPolygonShape">
        <g id="id38">
         <rect class="BoundingBox" stroke="none" fill="none" x="7395" y="6236" width="181" height="189"/>
         <path fill="rgb(0,114,188)" stroke="none" d="M 7470,6236 L 7458,6309 7520,6309 7531,6236 7575,6236 7544,6424 7501,6424 7514,6343 7452,6343 7440,6424 7395,6424 7426,6236 7470,6236 Z"/>
        </g>
       </g>
       <g class="com.sun.star.drawing.ClosedBezierShape">
        <g id="id39">
         <rect class="BoundingBox" stroke="none" fill="none" x="7586" y="6233" width="164" height="195"/>
         <path fill="rgb(0,114,188)" stroke="none" d="M 7709,6306 C 7709,6299 7708,6288 7703,6280 7698,6270 7690,6266 7678,6266 7661,6266 7651,6278 7645,6290 7636,6309 7631,6336 7631,6354 7631,6363 7633,6375 7640,6384 7645,6390 7654,6393 7662,6393 7676,6393 7694,6385 7701,6356 L 7740,6363 C 7737,6373 7732,6383 7725,6393 7708,6418 7687,6427 7661,6427 7630,6427 7612,6411 7603,6400 7592,6386 7586,6367 7586,6347 7586,6319 7595,6287 7612,6266 7628,6246 7650,6233 7681,6233 7708,6233 7722,6243 7730,6251 7742,6264 7748,6284 7749,6301 L 7709,6306 Z"/>
        </g>
       </g>
       <g class="com.sun.star.drawing.PolyPolygonShape">
        <g id="id40">
         <rect class="BoundingBox" stroke="none" fill="none" x="7762" y="6236" width="141" height="189"/>
         <path fill="rgb(0,114,188)" stroke="none" d="M 7901,6236 L 7896,6270 7850,6270 7825,6424 7781,6424 7807,6270 7762,6270 7768,6236 7901,6236 Z"/>
        </g>
       </g>
       <g class="com.sun.star.drawing.ClosedBezierShape">
        <g id="id41">
         <rect class="BoundingBox" stroke="none" fill="none" x="7888" y="6236" width="182" height="189"/>
         <path fill="rgb(0,114,188)" stroke="none" d="M 7962,6236 L 7945,6336 C 7945,6340 7943,6348 7941,6353 7947,6343 7949,6340 7951,6338 L 8023,6249 8025,6236 8069,6236 8038,6424 7995,6424 8011,6321 C 8012,6316 8013,6309 8015,6304 8012,6308 8008,6316 8006,6318 L 7933,6409 7931,6424 7888,6424 7918,6236 7962,6236 Z"/>
        </g>
       </g>
       <g class="com.sun.star.drawing.PolyPolygonShape">
        <g id="id42">
         <rect class="BoundingBox" stroke="none" fill="none" x="8081" y="6236" width="140" height="189"/>
         <path fill="rgb(0,114,188)" stroke="none" d="M 8220,6236 L 8214,6270 8170,6270 8144,6424 8100,6424 8125,6270 8081,6270 8086,6236 8220,6236 Z"/>
        </g>
       </g>
       <g class="com.sun.star.drawing.ClosedBezierShape">
        <g id="id43">
         <rect class="BoundingBox" stroke="none" fill="none" x="8211" y="6236" width="175" height="192"/>
         <path fill="rgb(0,114,188)" stroke="none" d="M 8267,6236 L 8293,6326 8294,6326 8345,6236 8385,6236 8306,6372 C 8290,6398 8282,6407 8277,6412 8264,6423 8251,6427 8234,6427 8226,6427 8218,6426 8211,6424 L 8217,6391 C 8224,6393 8231,6393 8233,6393 8239,6393 8247,6392 8254,6387 8258,6383 8262,6378 8264,6373 L 8219,6236 8267,6236 Z"/>
        </g>
       </g>
       <g class="com.sun.star.drawing.PolyPolygonShape">
        <g id="id44">
         <rect class="BoundingBox" stroke="none" fill="none" x="8374" y="6236" width="140" height="189"/>
         <path fill="rgb(0,114,188)" stroke="none" d="M 8513,6236 L 8507,6270 8463,6270 8437,6424 8393,6424 8418,6270 8374,6270 8380,6236 8513,6236 Z"/>
        </g>
       </g>
      </g>
     </g>
    </g>
   </g>
  </g>
 </g>
</svg>